<svg width="22" height="24" viewBox="0 0 22 24" fill="none" xmlns="http://www.w3.org/2000/svg">
<path fill-rule="evenodd" clip-rule="evenodd" d="M3.67705 3.93339C3.67486 3.13608 3.92071 2.35748 4.38108 1.70368C4.84146 1.04989 5.49398 0.552686 6.24974 0.279829C7.0055 0.00697274 7.82773 -0.0282698 8.60441 0.178904C9.38109 0.386077 10.0744 0.825591 10.59 1.43756C11.2226 0.673168 12.126 0.177257 13.1153 0.0512562C14.1045 -0.0747447 15.105 0.178686 15.912 0.759714C16.719 1.34074 17.2715 2.20546 17.4566 3.177C17.6417 4.14854 17.4454 5.15349 16.9078 5.9863L17.8223 5.98391C18.7 5.9816 19.5427 6.32502 20.1649 6.93861C20.7871 7.5522 21.138 8.3857 21.1403 9.25574L21.1466 11.6416C21.1481 12.0979 20.9986 12.5422 20.7212 12.9064C20.4437 13.2706 20.0536 13.5346 19.6104 13.6581C19.7894 15.8359 19.6941 18.0299 19.3267 20.1877C19.2198 20.8146 18.9102 21.3902 18.4448 21.8277C17.9793 22.2652 17.3831 22.5411 16.7458 22.6137L15.6451 22.7383C12.3234 23.1151 8.96973 23.1239 5.64613 22.7645L4.54592 22.6457C3.90829 22.5764 3.31062 22.3037 2.84286 21.8686C2.3751 21.4336 2.06255 20.8596 1.95226 20.2332C1.57225 18.0789 1.4654 15.8859 1.63419 13.7052C1.19034 13.5841 0.798773 13.3221 0.51941 12.9594C0.240046 12.5966 0.0882824 12.1532 0.0873462 11.6968L0.0810535 9.31097C0.0787587 8.44093 0.425216 7.6056 1.04421 6.98876C1.6632 6.37191 2.50403 6.02408 3.38171 6.02178L4.29628 6.01938C3.89275 5.39713 3.67783 4.67314 3.67705 3.93339ZM9.69398 3.91761C9.69252 3.36394 9.46925 2.83354 9.07328 2.44307C8.6773 2.05261 8.14107 1.83407 7.58255 1.83553C7.02402 1.837 6.48895 2.05834 6.09505 2.45088C5.70114 2.84342 5.48067 3.37499 5.48213 3.92866C5.48359 4.48232 5.70686 5.01273 6.10283 5.40319C6.4988 5.79366 7.03503 6.0122 7.59356 6.01073C8.15209 6.00927 8.68716 5.78792 9.08106 5.39538C9.47497 5.00285 9.69544 4.47128 9.69398 3.91761ZM13.6105 5.99495C13.887 5.99423 14.1607 5.93951 14.416 5.83393C14.6712 5.72835 14.9029 5.57397 15.098 5.3796C15.293 5.18524 15.4475 4.9547 15.5527 4.70114C15.6579 4.44758 15.7116 4.17598 15.7109 3.90183C15.7102 3.62768 15.655 3.35636 15.5485 3.10336C15.442 2.85036 15.2863 2.62063 15.0902 2.42729C14.8941 2.23395 14.6616 2.08079 14.4058 1.97655C14.15 1.87231 13.876 1.81903 13.5995 1.81975C13.0409 1.82122 12.5059 2.04256 12.112 2.4351C11.7181 2.82764 11.4976 3.35921 11.4991 3.91288C11.5005 4.46654 11.7238 4.99695 12.1198 5.38741C12.5157 5.77788 13.052 5.99642 13.6105 5.99495ZM1.88613 9.30624C1.88396 8.48313 2.55609 7.81333 3.38643 7.81115L9.7042 7.79458L9.71522 11.9698L2.19406 11.9895C2.11427 11.9897 2.03766 11.9585 1.9811 11.9027C1.92453 11.8469 1.89263 11.7712 1.89242 11.6921L1.88613 9.30624ZM11.525 13.7544L17.8055 13.7379C17.9794 15.7893 17.8934 17.8569 17.5473 19.8893C17.5055 20.1339 17.3847 20.3584 17.203 20.529C17.0214 20.6997 16.7888 20.8073 16.5402 20.8356L15.4406 20.9613C14.1453 21.1079 12.8467 21.1964 11.5447 21.2268L11.525 13.7544ZM11.5203 11.965L19.0415 11.9453C19.1212 11.9451 19.1977 11.9135 19.254 11.8574C19.3102 11.8013 19.3417 11.7254 19.3415 11.6463L19.3352 9.26048C19.333 8.43737 18.6574 7.7711 17.8271 7.77328L11.5093 7.78985L11.5203 11.965ZM9.71994 13.7592L9.73964 21.2316C8.43751 21.208 7.13711 21.1262 5.84241 20.9865L4.74219 20.8665C4.49361 20.8396 4.26056 20.7334 4.07805 20.5639C3.89555 20.3945 3.77344 20.1709 3.73006 19.9268C3.37341 17.8966 3.27577 15.83 3.43947 13.7756L9.71994 13.7592Z" fill="#E6007E"/>
</svg>
