<svg width="23" height="23" viewBox="0 0 23 23" fill="none" xmlns="http://www.w3.org/2000/svg">
<path d="M11.5947 0.234131C17.8169 0.234131 22.8606 5.27786 22.8606 11.5C22.8606 17.7222 17.8169 22.7659 11.5947 22.7659C5.37259 22.7659 0.328857 17.7222 0.328857 11.5C0.328857 5.27786 5.37259 0.234131 11.5947 0.234131ZM11.5947 2.48731C9.20442 2.48731 6.912 3.43686 5.22179 5.12707C3.53158 6.81728 2.58203 9.10969 2.58203 11.5C2.58203 13.8903 3.53158 16.1827 5.22179 17.873C6.912 19.5632 9.20442 20.5127 11.5947 20.5127C13.9851 20.5127 16.2775 19.5632 17.9677 17.873C19.6579 16.1827 20.6074 13.8903 20.6074 11.5C20.6074 9.10969 19.6579 6.81728 17.9677 5.12707C16.2775 3.43686 13.9851 2.48731 11.5947 2.48731ZM11.5947 14.8798C11.8935 14.8798 12.1801 14.9985 12.3914 15.2097C12.6026 15.421 12.7213 15.7076 12.7213 16.0064C12.7213 16.3051 12.6026 16.5917 12.3914 16.803C12.1801 17.0143 11.8935 17.1329 11.5947 17.1329C11.2959 17.1329 11.0094 17.0143 10.7981 16.803C10.5868 16.5917 10.4681 16.3051 10.4681 16.0064C10.4681 15.7076 10.5868 15.421 10.7981 15.2097C11.0094 14.9985 11.2959 14.8798 11.5947 14.8798ZM11.5947 4.74048C11.8935 4.74048 12.1801 4.85918 12.3914 5.07045C12.6026 5.28173 12.7213 5.56828 12.7213 5.86707V12.6266C12.7213 12.9254 12.6026 13.2119 12.3914 13.4232C12.1801 13.6345 11.8935 13.7532 11.5947 13.7532C11.2959 13.7532 11.0094 13.6345 10.7981 13.4232C10.5868 13.2119 10.4681 12.9254 10.4681 12.6266V5.86707C10.4681 5.56828 10.5868 5.28173 10.7981 5.07045C11.0094 4.85918 11.2959 4.74048 11.5947 4.74048Z" fill="#E6007E"/>
</svg>
