<svg width="257" height="234" viewBox="0 0 257 234" fill="none" xmlns="http://www.w3.org/2000/svg">
<path d="M230.75 11C230.752 11.282 230.674 11.5577 230.527 11.7887C230.38 12.0197 230.171 12.1946 229.93 12.2891L224.974 14.2717L223.172 19.7227C223.083 19.9858 222.923 20.2128 222.714 20.373C222.504 20.5333 222.255 20.6192 222 20.6192C221.745 20.6192 221.496 20.5333 221.286 20.373C221.077 20.2128 220.917 19.9858 220.828 19.7227L219.027 14.2708L214.07 12.2891C213.831 12.1914 213.625 12.0156 213.479 11.7851C213.333 11.5547 213.255 11.2807 213.255 11C213.255 10.7193 213.333 10.4454 213.479 10.215C213.625 9.98452 213.831 9.80865 214.07 9.71097L219.027 7.72925L220.828 2.27738C220.917 2.01424 221.077 1.78729 221.286 1.62702C221.496 1.46676 221.745 1.38086 222 1.38086C222.255 1.38086 222.504 1.46676 222.714 1.62702C222.923 1.78729 223.083 2.01424 223.172 2.27738L224.974 7.72925L229.93 9.71097C230.171 9.80544 230.38 9.98034 230.527 10.2114C230.674 10.4424 230.752 10.718 230.75 11Z" fill="#FDCECA"/>
<path d="M42.5625 61.5002C42.5648 61.8207 42.4752 62.1339 42.3061 62.3964C42.1371 62.659 41.8969 62.8577 41.6192 62.9651L35.9195 65.218L33.8477 71.4123C33.7456 71.7114 33.5617 71.9692 33.3208 72.1514C33.0799 72.3335 32.7935 72.4311 32.5 72.4311C32.2066 72.4311 31.9202 72.3335 31.6792 72.1514C31.4383 71.9692 31.2545 71.7114 31.1524 71.4123L29.0806 65.217L23.3809 62.9651C23.1058 62.8541 22.8685 62.6542 22.701 62.3924C22.5334 62.1305 22.4436 61.8192 22.4436 61.5002C22.4436 61.1813 22.5334 60.8699 22.701 60.6081C22.8685 60.3462 23.1058 60.1464 23.3809 60.0354L29.0806 57.7834L31.1524 51.5881C31.2545 51.2891 31.4383 51.0312 31.6792 50.8491C31.9202 50.667 32.2066 50.5693 32.5 50.5693C32.7935 50.5693 33.0799 50.667 33.3208 50.8491C33.5617 51.0312 33.7456 51.2891 33.8477 51.5881L35.9204 57.7834L41.6192 60.0354C41.8969 60.1427 42.1371 60.3415 42.3061 60.604C42.4752 60.8665 42.5648 61.1798 42.5625 61.5002Z" fill="#FDCECA"/>
<path d="M41.2501 210C41.2544 210.615 41.083 211.217 40.7596 211.721C40.4361 212.225 39.9768 212.606 39.4454 212.812L28.5416 217.138L24.5782 229.031C24.3828 229.605 24.0311 230.101 23.5702 230.45C23.1094 230.8 22.5614 230.987 22.0001 230.987C21.4387 230.987 20.8908 230.8 20.4299 230.45C19.969 230.101 19.6173 229.605 19.4219 229.031L15.4585 217.136L4.55476 212.812C4.02847 212.599 3.57458 212.216 3.25405 211.713C2.93352 211.21 2.76172 210.612 2.76172 210C2.76172 209.388 2.93352 208.79 3.25405 208.287C3.57458 207.784 4.02847 207.401 4.55476 207.187L15.4585 202.864L19.4219 190.969C19.6173 190.395 19.969 189.899 20.4299 189.55C20.8908 189.2 21.4387 189.013 22.0001 189.013C22.5614 189.013 23.1094 189.2 23.5702 189.55C24.0311 189.899 24.3828 190.395 24.5782 190.969L28.5434 202.864L39.4454 207.187C39.9768 207.394 40.4361 207.775 40.7596 208.279C41.083 208.783 41.2544 209.385 41.2501 210Z" fill="#FDCECA"/>
<path d="M235.938 53.0002C235.941 53.4617 235.812 53.9128 235.57 54.2908C235.327 54.6688 234.983 54.955 234.584 55.1096L226.406 58.3538L223.434 67.2737C223.287 67.7043 223.023 68.0756 222.678 68.3379C222.332 68.6001 221.921 68.7407 221.5 68.7407C221.079 68.7407 220.668 68.6001 220.322 68.3379C219.977 68.0756 219.713 67.7043 219.566 67.2737L216.594 58.3524L208.416 55.1096C208.021 54.9498 207.681 54.662 207.441 54.2849C207.2 53.9078 207.071 53.4595 207.071 53.0002C207.071 52.5409 207.2 52.0926 207.441 51.7156C207.681 51.3385 208.021 51.0507 208.416 50.8909L216.594 47.648L219.566 38.7268C219.713 38.2962 219.977 37.9248 220.322 37.6626C220.668 37.4003 221.079 37.2598 221.5 37.2598C221.921 37.2598 222.332 37.4003 222.678 37.6626C223.023 37.9248 223.287 38.2962 223.434 38.7268L226.408 47.648L234.584 50.8909C234.983 51.0454 235.327 51.3316 235.57 51.7097C235.812 52.0877 235.941 52.5388 235.938 53.0002Z" fill="#FDCECA"/>
<path d="M255.312 34.5001C255.315 34.8718 255.21 35.2352 255.011 35.5398C254.813 35.8443 254.531 36.0748 254.205 36.1994L247.514 38.8128L245.082 45.9982C244.962 46.3451 244.746 46.6442 244.463 46.8555C244.181 47.0667 243.844 47.18 243.5 47.18C243.155 47.18 242.819 47.0667 242.536 46.8555C242.254 46.6442 242.038 46.3451 241.918 45.9982L239.486 38.8116L232.795 36.1994C232.472 36.0706 232.193 35.8388 231.997 35.535C231.8 35.2313 231.695 34.8701 231.695 34.5001C231.695 34.1301 231.8 33.769 231.997 33.4653C232.193 33.1615 232.472 32.9297 232.795 32.8009L239.486 30.1887L241.918 23.0021C242.038 22.6552 242.254 22.3561 242.536 22.1448C242.819 21.9335 243.155 21.8203 243.5 21.8203C243.844 21.8203 244.181 21.9335 244.463 22.1448C244.746 22.3561 244.962 22.6552 245.082 23.0021L247.515 30.1887L254.205 32.8009C254.531 32.9254 254.813 33.156 255.011 33.4605C255.21 33.765 255.315 34.1284 255.312 34.5001Z" fill="#FDCECA"/>
</svg>
