<svg width="23" height="17" viewBox="0 0 23 17" fill="none" xmlns="http://www.w3.org/2000/svg">
<path d="M1.27771 2.83333C1.27771 2.08189 1.6008 1.36122 2.17592 0.829864C2.75103 0.298511 3.53105 0 4.34438 0H5.87771C6.14882 0 6.40883 0.0995036 6.60053 0.276621C6.79223 0.453739 6.89993 0.693962 6.89993 0.944444C6.89993 1.19493 6.79223 1.43515 6.60053 1.61227C6.40883 1.78938 6.14882 1.88889 5.87771 1.88889H4.34438C4.07327 1.88889 3.81326 1.98839 3.62156 2.16551C3.42985 2.34263 3.32215 2.58285 3.32215 2.83333V4.25C3.32215 4.50048 3.21446 4.74071 3.02275 4.91782C2.83105 5.09494 2.57104 5.19444 2.29993 5.19444C2.02882 5.19444 1.76882 5.09494 1.57711 4.91782C1.38541 4.74071 1.27771 4.50048 1.27771 4.25V2.83333ZM16.0999 0.944444C16.0999 0.693962 16.2076 0.453739 16.3993 0.276621C16.591 0.0995036 16.851 0 17.1222 0H18.6555C19.4688 0 20.2488 0.298511 20.824 0.829864C21.3991 1.36122 21.7222 2.08189 21.7222 2.83333V4.25C21.7222 4.50048 21.6145 4.74071 21.4228 4.91782C21.2311 5.09494 20.971 5.19444 20.6999 5.19444C20.4288 5.19444 20.1688 5.09494 19.9771 4.91782C19.7854 4.74071 19.6777 4.50048 19.6777 4.25V2.83333C19.6777 2.58285 19.57 2.34263 19.3783 2.16551C19.1866 1.98839 18.9266 1.88889 18.6555 1.88889H17.1222C16.851 1.88889 16.591 1.78938 16.3993 1.61227C16.2076 1.43515 16.0999 1.19493 16.0999 0.944444ZM2.29993 11.8056C2.57104 11.8056 2.83105 11.9051 3.02275 12.0822C3.21446 12.2593 3.32215 12.4995 3.32215 12.75V14.1667C3.32215 14.4171 3.42985 14.6574 3.62156 14.8345C3.81326 15.0116 4.07327 15.1111 4.34438 15.1111H5.87771C6.14882 15.1111 6.40883 15.2106 6.60053 15.3877C6.79223 15.5648 6.89993 15.8051 6.89993 16.0556C6.89993 16.306 6.79223 16.5463 6.60053 16.7234C6.40883 16.9005 6.14882 17 5.87771 17H4.34438C3.53105 17 2.75103 16.7015 2.17592 16.1701C1.6008 15.6388 1.27771 14.9181 1.27771 14.1667V12.75C1.27771 12.4995 1.38541 12.2593 1.57711 12.0822C1.76882 11.9051 2.02882 11.8056 2.29993 11.8056ZM20.6999 11.8056C20.971 11.8056 21.2311 11.9051 21.4228 12.0822C21.6145 12.2593 21.7222 12.4995 21.7222 12.75V14.1667C21.7222 14.9181 21.3991 15.6388 20.824 16.1701C20.2488 16.7015 19.4688 17 18.6555 17H17.1222C16.851 17 16.591 16.9005 16.3993 16.7234C16.2076 16.5463 16.0999 16.306 16.0999 16.0556C16.0999 15.8051 16.2076 15.5648 16.3993 15.3877C16.591 15.2106 16.851 15.1111 17.1222 15.1111H18.6555C18.9266 15.1111 19.1866 15.0116 19.3783 14.8345C19.57 14.6574 19.6777 14.4171 19.6777 14.1667V12.75C19.6777 12.4995 19.7854 12.2593 19.9771 12.0822C20.1688 11.9051 20.4288 11.8056 20.6999 11.8056ZM5.3666 3.54167C5.63771 3.54167 5.89772 3.64117 6.08942 3.81829C6.28112 3.99541 6.38882 4.23563 6.38882 4.48611V12.5139C6.38882 12.7644 6.28112 13.0046 6.08942 13.1817C5.89772 13.3588 5.63771 13.4583 5.3666 13.4583C5.09549 13.4583 4.83548 13.3588 4.64378 13.1817C4.45208 13.0046 4.34438 12.7644 4.34438 12.5139V4.48611C4.34438 4.23563 4.45208 3.99541 4.64378 3.81829C4.83548 3.64117 5.09549 3.54167 5.3666 3.54167ZM10.4777 4.48611C10.4777 4.23563 10.37 3.99541 10.1783 3.81829C9.9866 3.64117 9.7266 3.54167 9.45549 3.54167C9.18438 3.54167 8.92437 3.64117 8.73267 3.81829C8.54096 3.99541 8.43327 4.23563 8.43327 4.48611V12.5139C8.43327 12.7644 8.54096 13.0046 8.73267 13.1817C8.92437 13.3588 9.18438 13.4583 9.45549 13.4583C9.7266 13.4583 9.9866 13.3588 10.1783 13.1817C10.37 13.0046 10.4777 12.7644 10.4777 12.5139V4.48611ZM13.5444 3.54167C13.8155 3.54167 14.0755 3.64117 14.2672 3.81829C14.4589 3.99541 14.5666 4.23563 14.5666 4.48611V12.5139C14.5666 12.7644 14.4589 13.0046 14.2672 13.1817C14.0755 13.3588 13.8155 13.4583 13.5444 13.4583C13.2733 13.4583 13.0133 13.3588 12.8216 13.1817C12.6299 13.0046 12.5222 12.7644 12.5222 12.5139V4.48611C12.5222 4.23563 12.6299 3.99541 12.8216 3.81829C13.0133 3.64117 13.2733 3.54167 13.5444 3.54167ZM18.6555 4.48611C18.6555 4.23563 18.5478 3.99541 18.3561 3.81829C18.1644 3.64117 17.9044 3.54167 17.6333 3.54167C17.3622 3.54167 17.1021 3.64117 16.9104 3.81829C16.7187 3.99541 16.611 4.23563 16.611 4.48611V12.5139C16.611 12.7644 16.7187 13.0046 16.9104 13.1817C17.1021 13.3588 17.3622 13.4583 17.6333 13.4583C17.9044 13.4583 18.1644 13.3588 18.3561 13.1817C18.5478 13.0046 18.6555 12.7644 18.6555 12.5139V4.48611Z" fill="#333333"/>
<rect y="7.56641" width="23" height="1.68132" rx="0.840659" fill="#E6007E"/>
</svg>
