<svg width="127" height="72" viewBox="0 0 127 72" fill="none" xmlns="http://www.w3.org/2000/svg">
<path d="M127 50.192C127 45.3097 125.375 40.5686 122.385 36.7277C119.394 32.8869 115.212 30.1686 110.507 29.008C110.312 21.2504 107.119 13.8762 101.608 8.45735C96.0971 3.03855 88.7041 0.00378798 81.0051 7.66169e-06C76.5416 -0.00322465 72.1359 1.01632 68.1208 2.98157C64.1058 4.94682 60.5865 7.80635 57.829 11.344C55.5849 8.439 52.4523 6.36178 48.9173 5.43471C45.3822 4.50763 41.6425 4.78254 38.2783 6.21676C34.9141 7.65098 32.1136 10.1643 30.3114 13.3668C28.5093 16.5692 27.8062 20.2816 28.3113 23.928C24.8489 23.2967 21.2911 23.4394 17.8894 24.346C14.4877 25.2527 11.325 26.9011 8.62466 29.175C5.92437 31.4488 3.75236 34.2925 2.26208 37.5053C0.771792 40.718 -0.000416516 44.2214 1.68543e-07 47.768C0.00210026 54.1913 2.5335 60.3512 7.03821 64.8946C11.5429 69.4381 17.6526 71.9936 24.0253 72H105.411C111.141 71.9873 116.631 69.6838 120.677 65.5952C124.723 61.5065 127.002 55.9668 127 50.192Z" fill="#E4E4E7"/>
</svg>
