<svg width="18" height="20" viewBox="0 0 18 20" fill="none" xmlns="http://www.w3.org/2000/svg">
<path d="M7.95 13.45L11.425 9.975C11.625 9.775 11.8667 9.675 12.15 9.675C12.4333 9.675 12.675 9.775 12.875 9.975C13.075 10.175 13.175 10.4167 13.175 10.7C13.175 10.9833 13.075 11.225 12.875 11.425L8.65 15.65C8.45 15.85 8.21667 15.95 7.95 15.95C7.68333 15.95 7.45 15.85 7.25 15.65L5.125 13.525C4.925 13.325 4.825 13.0833 4.825 12.8C4.825 12.5167 4.925 12.275 5.125 12.075C5.325 11.875 5.56667 11.775 5.85 11.775C6.13333 11.775 6.375 11.875 6.575 12.075L7.95 13.45ZM2 20C1.45 20 0.979333 19.8043 0.588 19.413C0.196667 19.0217 0.000666667 18.5507 0 18V4C0 3.45 0.196 2.97934 0.588 2.588C0.98 2.19667 1.45067 2.00067 2 2H3V1C3 0.71667 3.096 0.479337 3.288 0.288004C3.48 0.0966702 3.71733 0.000670115 4 3.44827e-06C4.28267 -0.000663218 4.52033 0.0953369 4.713 0.288004C4.90567 0.48067 5.00133 0.718003 5 1V2H13V1C13 0.71667 13.096 0.479337 13.288 0.288004C13.48 0.0966702 13.7173 0.000670115 14 3.44827e-06C14.2827 -0.000663218 14.5203 0.0953369 14.713 0.288004C14.9057 0.48067 15.0013 0.718003 15 1V2H16C16.55 2 17.021 2.196 17.413 2.588C17.805 2.98 18.0007 3.45067 18 4V18C18 18.55 17.8043 19.021 17.413 19.413C17.0217 19.805 16.5507 20.0007 16 20H2ZM2 18H16V8H2V18ZM2 6H16V4H2V6Z" fill="#333333"/>
</svg>
