<svg width="15" height="16" viewBox="0 0 15 16" fill="none" xmlns="http://www.w3.org/2000/svg">
<path fill-rule="evenodd" clip-rule="evenodd" d="M2.57133 3.01826C2.5699 2.4944 2.74467 1.9828 3.07182 1.55316C3.39898 1.12352 3.86261 0.796738 4.39954 0.617343C4.93647 0.437949 5.52059 0.414665 6.07231 0.550665C6.62403 0.686664 7.11651 0.975333 7.48266 1.37734C7.93222 0.875006 8.57403 0.549034 9.27683 0.466093C9.97963 0.383152 10.6903 0.549509 11.2635 0.931139C11.8367 1.31277 12.2291 1.88083 12.3604 2.51914C12.4918 3.15745 12.3522 3.81777 11.9701 4.36504L12.6198 4.36332C13.2433 4.36167 13.8419 4.58718 14.2838 4.99023C14.7258 5.39329 14.9749 5.94087 14.9764 6.51252L14.9805 8.08009C14.9815 8.37994 14.8752 8.67186 14.6781 8.91119C14.4809 9.15051 14.2037 9.32405 13.8888 9.40524C14.0157 10.8361 13.9476 12.2777 13.6863 13.6955C13.6102 14.1074 13.3903 14.4856 13.0595 14.7732C12.7288 15.0607 12.3052 15.242 11.8525 15.2899L11.0705 15.3719C8.71071 15.62 6.32827 15.6263 3.96724 15.3907L3.18567 15.3128C2.73271 15.2674 2.30817 15.0883 1.97594 14.8025C1.64371 14.5167 1.42176 14.1397 1.34351 13.7281C1.07389 12.3127 0.998324 10.8718 1.11857 9.43902C0.80328 9.35949 0.525149 9.18742 0.326746 8.94915C0.128342 8.71087 0.0205983 8.41951 0.0200042 8.11967L0.0159046 6.55209C0.0144096 5.98044 0.260662 5.43155 0.700491 5.02616C1.14032 4.62078 1.73769 4.39211 2.3612 4.39046L3.01091 4.38874C2.72434 3.97996 2.57177 3.50431 2.57133 3.01826ZM6.84576 3.00696C6.8448 2.64318 6.68627 2.29472 6.40504 2.03823C6.1238 1.78174 5.7429 1.63824 5.34612 1.63929C4.94934 1.64034 4.5692 1.78585 4.28931 2.04383C4.00942 2.3018 3.85271 2.65109 3.85366 3.01487C3.85461 3.37865 4.01314 3.72711 4.29438 3.9836C4.57562 4.24009 4.95652 4.38359 5.3533 4.38254C5.75007 4.38149 6.13022 4.23598 6.41011 3.97801C6.69 3.72003 6.84671 3.37074 6.84576 3.00696ZM9.62772 4.37124C9.82418 4.37072 10.0186 4.33473 10.2 4.26531C10.3813 4.1959 10.5459 4.09443 10.6845 3.9667C10.8231 3.83896 10.9329 3.68747 11.0077 3.52085C11.0824 3.35424 11.1206 3.17578 11.1202 2.99565C11.1197 2.81553 11.0805 2.63727 11.0049 2.47105C10.9293 2.30484 10.8187 2.15392 10.6795 2.02692C10.5402 1.89992 10.375 1.79933 10.1933 1.73088C10.0116 1.66243 9.81701 1.62746 9.62054 1.62798C9.22377 1.62903 8.84362 1.77455 8.56373 2.03252C8.28384 2.29049 8.12713 2.63979 8.12808 3.00357C8.12903 3.36735 8.28756 3.71581 8.5688 3.9723C8.85004 4.22878 9.23094 4.37229 9.62772 4.37124ZM1.29823 6.5487C1.29682 6.00789 1.7744 5.5677 2.36427 5.56614L6.85242 5.55427L6.85959 8.29752L1.51656 8.31166C1.45988 8.31181 1.40547 8.2913 1.36529 8.25466C1.32511 8.21802 1.30247 8.16824 1.30233 8.11627L1.29823 6.5487ZM8.14499 9.46981L12.6066 9.45801C12.7298 10.8058 12.6684 12.1643 12.4223 13.4997C12.3925 13.6604 12.3067 13.808 12.1776 13.9201C12.0485 14.0322 11.8833 14.103 11.7067 14.1216L10.9255 14.2044C10.0053 14.3009 9.08277 14.3592 8.15783 14.3795L8.14499 9.46981ZM8.14192 8.29413L13.4849 8.28C13.5416 8.27985 13.5959 8.25906 13.6359 8.22221C13.6759 8.18535 13.6983 8.13545 13.6982 8.08349L13.6941 6.51591C13.6926 5.9751 13.2128 5.53744 12.6229 5.539L8.13474 5.55088L8.14192 8.29413ZM6.86267 9.4732L6.87551 14.3828C5.95047 14.3676 5.02668 14.314 4.10695 14.2224L3.32538 14.1438C3.14879 14.1261 2.98325 14.0564 2.85362 13.9451C2.724 13.8338 2.63728 13.6869 2.60651 13.5265C2.35345 12.1926 2.28442 10.8348 2.40103 9.48501L6.86267 9.4732Z" fill="#E6007E"/>
</svg>
