<svg width="16" height="16" viewBox="0 0 16 16" fill="none" xmlns="http://www.w3.org/2000/svg">
<path d="M6.69766 12.9862C5.07699 12.9862 3.70234 12.4219 2.57369 11.2932C1.44504 10.1646 0.880437 8.78964 0.879883 7.16842V2.18175C0.879883 1.72464 1.04278 1.33347 1.36858 1.00822C1.69437 0.682983 2.08555 0.520085 2.54211 0.519531H12.931C13.7344 0.519531 14.4201 0.803494 14.988 1.37142C15.5559 1.93935 15.8399 2.62501 15.8399 3.42842C15.8399 4.23183 15.5559 4.91749 14.988 5.48542C14.4201 6.05335 13.7344 6.33731 12.931 6.33731H12.5154V7.16842C12.5154 8.78909 11.9511 10.164 10.8225 11.2932C9.69382 12.4224 8.31888 12.9868 6.69766 12.9862ZM2.54211 4.67509H10.8532V2.18175H2.54211V4.67509ZM12.5154 4.67509H12.931C13.2773 4.67509 13.5718 4.55402 13.8145 4.31189C14.0572 4.06976 14.1782 3.77527 14.1777 3.42842C14.1771 3.08157 14.056 2.78736 13.8145 2.54578C13.5729 2.3042 13.2784 2.18286 12.931 2.18175H12.5154V4.67509ZM0.879883 15.4795V13.8173H14.1777V15.4795H0.879883Z" fill="white"/>
</svg>
