<svg width="24" height="24" viewBox="0 0 24 24" fill="none" xmlns="http://www.w3.org/2000/svg">
<path d="M8.24416 7.64163L11.1025 1.58351C11.1857 1.40819 11.3136 1.26073 11.472 1.15766C11.6304 1.05459 11.8129 1 11.9991 1C12.1853 1 12.3679 1.05459 12.5262 1.15766C12.6846 1.26073 12.8126 1.40819 12.8958 1.58351L15.7541 7.64163L22.144 8.61889C22.3284 8.64579 22.5018 8.72668 22.6445 8.85234C22.7872 8.97799 22.8935 9.14334 22.9512 9.32952C23.0089 9.5157 23.0157 9.7152 22.9708 9.90526C22.926 10.0953 22.8312 10.2683 22.6974 10.4044L18.0744 15.117L19.1658 21.7749C19.3055 22.6294 18.4474 23.2802 17.7136 22.8772L11.9991 19.7324L6.28361 22.8772C5.55088 23.2813 4.69272 22.6294 4.83245 21.7738L5.92384 15.1158L1.30082 10.4032C1.16768 10.267 1.07351 10.0942 1.02903 9.90452C0.984542 9.7148 0.991519 9.51576 1.04917 9.33001C1.10681 9.14426 1.21282 8.97925 1.35513 8.85375C1.49744 8.72825 1.67036 8.64728 1.85421 8.62005L8.24416 7.64163Z" stroke="#A1A1AA" stroke-width="1.75" stroke-linecap="round" stroke-linejoin="round" fill="none"/>
</svg>
