<svg width="22" height="22" viewBox="0 0 22 22" fill="none" xmlns="http://www.w3.org/2000/svg">
<path d="M7.24416 6.64163L10.1025 0.583513C10.1857 0.40819 10.3136 0.260727 10.472 0.15766C10.6304 0.0545942 10.8129 0 10.9991 0C11.1853 0 11.3679 0.0545942 11.5262 0.15766C11.6846 0.260727 11.8126 0.40819 11.8958 0.583513L14.7541 6.64163L21.144 7.61889C21.3284 7.64579 21.5018 7.72668 21.6445 7.85234C21.7872 7.97799 21.8935 8.14334 21.9512 8.32952C22.0089 8.5157 22.0157 8.7152 21.9708 8.90526C21.926 9.09531 21.8312 9.26826 21.6974 9.40437L17.0744 14.117L18.1658 20.7749C18.3055 21.6294 17.4474 22.2802 16.7136 21.8772L10.9991 18.7324L5.28361 21.8772C4.55088 22.2813 3.69272 21.6294 3.83245 20.7738L4.92384 14.1158L0.300815 9.40321C0.167676 9.26701 0.0735123 9.09424 0.0290269 8.90452C-0.0154585 8.7148 -0.00848101 8.51576 0.0491661 8.33001C0.106813 8.14426 0.212818 7.97925 0.35513 7.85375C0.497443 7.72825 0.670356 7.64728 0.854214 7.62005L7.24416 6.64163Z" fill="#FDE047"/>
</svg>
