<svg width="24" height="24" viewBox="0 0 24 24" fill="none" xmlns="http://www.w3.org/2000/svg">
<path d="M8.24428 7.64163L11.1026 1.58351C11.1858 1.40819 11.3138 1.26073 11.4721 1.15766C11.6305 1.05459 11.813 1 11.9993 1C12.1855 1 12.368 1.05459 12.5264 1.15766C12.6847 1.26073 12.8127 1.40819 12.8959 1.58351L15.7542 7.64163L22.1442 8.61889C22.3285 8.64579 22.5019 8.72668 22.6446 8.85234C22.7873 8.97799 22.8936 9.14334 22.9513 9.32952C23.009 9.5157 23.0158 9.7152 22.971 9.90526C22.9261 10.0953 22.8314 10.2683 22.6976 10.4044L18.0745 15.117L19.1659 21.7749C19.3057 22.6294 18.4475 23.2802 17.7137 22.8772L11.9993 19.7324L6.28373 22.8772C5.551 23.2813 4.69284 22.6294 4.83257 21.7738L5.92396 15.1158L1.30094 10.4032C1.1678 10.267 1.07363 10.0942 1.02915 9.90452C0.984664 9.7148 0.991641 9.51576 1.04929 9.33001C1.10694 9.14426 1.21294 8.97925 1.35525 8.85375C1.49757 8.72825 1.67048 8.64728 1.85434 8.62005L8.24428 7.64163Z" stroke="black" stroke-width="1.75" stroke-linecap="round" stroke-linejoin="round" fill="none"/>
</svg>
