<svg width="24" height="24" viewBox="0 0 24 24" fill="none" xmlns="http://www.w3.org/2000/svg">
<path d="M8.24404 7.64163L11.1023 1.58351C11.1856 1.40819 11.3135 1.26073 11.4719 1.15766C11.6303 1.05459 11.8128 1 11.999 1C12.1852 1 12.3677 1.05459 12.5261 1.15766C12.6845 1.26073 12.8125 1.40819 12.8957 1.58351L15.754 7.64163L22.1439 8.61889C22.3282 8.64579 22.5016 8.72668 22.6444 8.85234C22.7871 8.97799 22.8934 9.14334 22.9511 9.32952C23.0088 9.5157 23.0156 9.7152 22.9707 9.90526C22.9258 10.0953 22.8311 10.2683 22.6973 10.4044L18.0743 15.117L19.1657 21.7749C19.3054 22.6294 18.4473 23.2802 17.7134 22.8772L11.999 19.7324L6.28348 22.8772C5.55075 23.2813 4.6926 22.6294 4.83233 21.7738L5.92372 15.1158L1.30069 10.4032C1.16755 10.267 1.07339 10.0942 1.0289 9.90452C0.984419 9.7148 0.991397 9.51576 1.04904 9.33001C1.10669 9.14426 1.2127 8.97925 1.35501 8.85375C1.49732 8.72825 1.67023 8.64728 1.85409 8.62005L8.24404 7.64163Z" fill="black" stroke="black" stroke-width="1.75" stroke-linecap="round" stroke-linejoin="round"/>
</svg>
