<svg width="24" height="19" viewBox="0 0 24 19" fill="none" xmlns="http://www.w3.org/2000/svg">
<path d="M2.33333 0.166504C1.71449 0.166504 1.121 0.412336 0.683417 0.849921C0.245833 1.28751 0 1.881 0 2.49984V7.1665C0.618838 7.1665 1.21233 7.41234 1.64992 7.84992C2.0875 8.28751 2.33333 8.881 2.33333 9.49984C2.33333 10.1187 2.0875 10.7122 1.64992 11.1498C1.21233 11.5873 0.618838 11.8332 0 11.8332V16.4998C0 17.1187 0.245833 17.7122 0.683417 18.1498C1.121 18.5873 1.71449 18.8332 2.33333 18.8332H21C21.6188 18.8332 22.2123 18.5873 22.6499 18.1498C23.0875 17.7122 23.3333 17.1187 23.3333 16.4998V11.8332C22.7145 11.8332 22.121 11.5873 21.6834 11.1498C21.2458 10.7122 21 10.1187 21 9.49984C21 8.881 21.2458 8.28751 21.6834 7.84992C22.121 7.41234 22.7145 7.1665 23.3333 7.1665V2.49984C23.3333 1.881 23.0875 1.28751 22.6499 0.849921C22.2123 0.412336 21.6188 0.166504 21 0.166504H2.33333ZM15.75 3.6665L17.5 5.4165L7.58333 15.3332L5.83333 13.5832L15.75 3.6665ZM7.945 3.71317C9.08833 3.71317 10.01 4.63484 10.01 5.77817C10.01 6.32584 9.79244 6.85108 9.40517 7.23835C9.01791 7.62561 8.49267 7.84317 7.945 7.84317C6.80167 7.84317 5.88 6.9215 5.88 5.77817C5.88 5.2305 6.09756 4.70526 6.48482 4.318C6.87209 3.93073 7.39733 3.71317 7.945 3.71317ZM15.3883 11.1565C16.5317 11.1565 17.4533 12.0782 17.4533 13.2215C17.4533 13.7692 17.2358 14.2944 16.8485 14.6817C16.4612 15.0689 15.936 15.2865 15.3883 15.2865C14.245 15.2865 13.3233 14.3648 13.3233 13.2215C13.3233 12.6738 13.5409 12.1486 13.9282 11.7613C14.3154 11.3741 14.8407 11.1565 15.3883 11.1565Z" fill="#E6007E"/>
</svg>
