<svg width="23" height="19" viewBox="0 0 23 19" fill="none" xmlns="http://www.w3.org/2000/svg">
<path d="M7.46071 13.0536L15.4964 5.01786M1 15.4643C0.999999 15.89 1.16888 16.2983 1.46958 16.5996C1.77029 16.9009 2.17824 17.0706 2.60393 17.0714H20.2889C20.7146 17.0706 21.1226 16.9009 21.4233 16.5996C21.724 16.2983 21.8929 15.89 21.8929 15.4643V12.1954C21.1989 12.0072 20.5863 11.5958 20.1494 11.0247C19.7126 10.4537 19.4759 9.7547 19.4759 9.03572C19.4759 8.31673 19.7126 7.61774 20.1494 7.04668C20.5863 6.47562 21.1989 6.06424 21.8929 5.87607V2.60714C21.8929 2.18146 21.724 1.77316 21.4233 1.47186C21.1226 1.17055 20.7146 1.00085 20.2889 1H2.60393C2.17824 1.00085 1.77029 1.17055 1.46958 1.47186C1.16888 1.77316 0.999999 2.18146 1 2.60714V5.86964C1.69946 6.05361 2.31831 6.46403 2.75992 7.0368C3.20152 7.60958 3.44103 8.31247 3.44103 9.03572C3.44103 9.75896 3.20152 10.4619 2.75992 11.0346C2.31831 11.6074 1.69946 12.0178 1 12.2018V15.4643Z" stroke="#333333" stroke-width="2" stroke-linecap="round" stroke-linejoin="round" fill="none"/>
<path d="M8.26426 6.62472C8.47739 6.62472 8.68178 6.54006 8.83248 6.38936C8.98317 6.23866 9.06784 6.03427 9.06784 5.82115C9.06784 5.60803 8.98317 5.40364 8.83248 5.25294C8.68178 5.10224 8.47739 5.01758 8.26426 5.01758C8.05114 5.01758 7.84675 5.10224 7.69605 5.25294C7.54536 5.40364 7.46069 5.60803 7.46069 5.82115C7.46069 6.03427 7.54536 6.23866 7.69605 6.38936C7.84675 6.54006 8.05114 6.62472 8.26426 6.62472ZM14.6928 13.0533C14.906 13.0533 15.1103 12.9686 15.261 12.8179C15.4117 12.6672 15.4964 12.4628 15.4964 12.2497C15.4964 12.0366 15.4117 11.8322 15.261 11.6815C15.1103 11.5308 14.906 11.4461 14.6928 11.4461C14.4797 11.4461 14.2753 11.5308 14.1246 11.6815C13.9739 11.8322 13.8893 12.0366 13.8893 12.2497C13.8893 12.4628 13.9739 12.6672 14.1246 12.8179C14.2753 12.9686 14.4797 13.0533 14.6928 13.0533Z" stroke="#333333" stroke-width="2" stroke-linecap="round" stroke-linejoin="round" fill="none"/>
</svg>
