<svg width="22" height="20" viewBox="0 0 22 20" fill="none" xmlns="http://www.w3.org/2000/svg">
<path d="M20.25 9.99989H7.895M3.534 9.99989H1.75M3.534 9.99989C3.534 9.42172 3.76368 8.86723 4.17251 8.4584C4.58134 8.04957 5.13583 7.81989 5.714 7.81989C6.29217 7.81989 6.84666 8.04957 7.25549 8.4584C7.66432 8.86723 7.894 9.42172 7.894 9.99989C7.894 10.5781 7.66432 11.1326 7.25549 11.5414C6.84666 11.9502 6.29217 12.1799 5.714 12.1799C5.13583 12.1799 4.58134 11.9502 4.17251 11.5414C3.76368 11.1326 3.534 10.5781 3.534 9.99989ZM20.25 16.6069H14.502M14.502 16.6069C14.502 17.1852 14.2718 17.7403 13.8628 18.1492C13.4539 18.5582 12.8993 18.7879 12.321 18.7879C11.7428 18.7879 11.1883 18.5572 10.7795 18.1484C10.3707 17.7396 10.141 17.1851 10.141 16.6069M14.502 16.6069C14.502 16.0286 14.2718 15.4745 13.8628 15.0655C13.4539 14.6566 12.8993 14.4269 12.321 14.4269C11.7428 14.4269 11.1883 14.6566 10.7795 15.0654C10.3707 15.4742 10.141 16.0287 10.141 16.6069M10.141 16.6069H1.75M20.25 3.39289H17.145M12.784 3.39289H1.75M12.784 3.39289C12.784 2.81472 13.0137 2.26023 13.4225 1.8514C13.8313 1.44257 14.3858 1.21289 14.964 1.21289C15.2503 1.21289 15.5338 1.26928 15.7983 1.37883C16.0627 1.48839 16.3031 1.64897 16.5055 1.8514C16.7079 2.05383 16.8685 2.29415 16.9781 2.55864C17.0876 2.82313 17.144 3.10661 17.144 3.39289C17.144 3.67917 17.0876 3.96265 16.9781 4.22714C16.8685 4.49163 16.7079 4.73195 16.5055 4.93438C16.3031 5.13681 16.0627 5.29739 15.7983 5.40695C15.5338 5.5165 15.2503 5.57289 14.964 5.57289C14.3858 5.57289 13.8313 5.34321 13.4225 4.93438C13.0137 4.52555 12.784 3.97106 12.784 3.39289Z" stroke="#E6007E" stroke-width="1.75" stroke-miterlimit="10" stroke-linecap="round" fill="none"/>
</svg>
