<svg width="22" height="25" viewBox="0 0 22 25" fill="none" xmlns="http://www.w3.org/2000/svg">
<path d="M18.5 17.27C20.0563 17.9313 21 18.7988 21 19.75C21 21.8213 16.5225 23.5 11 23.5C5.4775 23.5 1 21.8213 1 19.75C1 18.8 1.94375 17.93 3.5 17.27" stroke="#A1A1AA" stroke-width="1.75" stroke-linecap="round" stroke-linejoin="round" fill="none"/>
<path d="M17.25 7.805C17.25 11.6713 11 18.5 11 18.5C11 18.5 4.75 11.6713 4.75 7.805C4.75 3.93875 7.54875 1 11 1C14.4512 1 17.25 3.94 17.25 7.805Z" stroke="#A1A1AA" stroke-width="1.75" stroke-linecap="round" stroke-linejoin="round" fill="none"/>
<path d="M11 8.5C11.6904 8.5 12.25 7.94036 12.25 7.25C12.25 6.55964 11.6904 6 11 6C10.3096 6 9.75 6.55964 9.75 7.25C9.75 7.94036 10.3096 8.5 11 8.5Z" stroke="#A1A1AA" stroke-width="1.75" stroke-linecap="round" stroke-linejoin="round" fill="none"/>
</svg>
