<svg width="23" height="23" viewBox="0 0 23 23" fill="none" xmlns="http://www.w3.org/2000/svg">
<path d="M11.5 22C12.8789 22 14.2443 21.7284 15.5182 21.2007C16.7921 20.6731 17.9496 19.8996 18.9246 18.9246C19.8996 17.9496 20.6731 16.7921 21.2007 15.5182C21.7284 14.2443 22 12.8789 22 11.5C22 10.1211 21.7284 8.75574 21.2007 7.48182C20.6731 6.20791 19.8996 5.05039 18.9246 4.07538C17.9496 3.10036 16.7921 2.32694 15.5182 1.79927C14.2443 1.27159 12.8789 1 11.5 1C8.71523 1 6.04451 2.10625 4.07538 4.07538C2.10625 6.04451 1 8.71523 1 11.5C1 14.2848 2.10625 16.9555 4.07538 18.9246C6.04451 20.8938 8.71523 22 11.5 22Z" stroke="black" stroke-linecap="round" stroke-linejoin="round" fill="none"/>
<path d="M11.5 4.75V1.75M11.5 21.25V18.25M18.25 11.5H21.25M1.75 11.5H4.75M11.5 12.25C11.6989 12.25 11.8897 12.171 12.0303 12.0303C12.171 11.8897 12.25 11.6989 12.25 11.5C12.25 11.3011 12.171 11.1103 12.0303 10.9697C11.8897 10.829 11.6989 10.75 11.5 10.75C11.3011 10.75 11.1103 10.829 10.9697 10.9697C10.829 11.1103 10.75 11.3011 10.75 11.5C10.75 11.6989 10.829 11.8897 10.9697 12.0303C11.1103 12.171 11.3011 12.25 11.5 12.25Z" stroke="black" stroke-linecap="round" stroke-linejoin="round" fill="none"/>
<circle cx="11.5" cy="11.5002" r="1.05" fill="black" />
</svg>
