<svg width="82" height="46" viewBox="0 0 82 46" fill="none" xmlns="http://www.w3.org/2000/svg">
<path d="M82 32.0671C82.0002 28.9479 80.9508 25.9188 79.0201 23.465C77.0893 21.0111 74.3888 19.2744 71.3509 18.5329C71.2253 13.5766 69.1636 8.86533 65.6053 5.40331C62.0469 1.94129 57.2735 0.0024201 52.3025 4.89497e-06C49.4206 -0.00206019 46.5759 0.649315 43.9835 1.90489C41.3911 3.16047 39.1188 4.98739 37.3384 7.24756C35.8895 5.39158 33.8669 4.06447 31.5844 3.47217C29.3019 2.87987 26.8873 3.05551 24.7151 3.97182C22.5429 4.88813 20.7348 6.49387 19.5712 8.53987C18.4076 10.5859 17.9536 12.9577 18.2797 15.2873C16.0441 14.884 13.747 14.9752 11.5506 15.5544C9.35425 16.1337 7.31218 17.1868 5.56868 18.6396C3.82518 20.0923 2.42278 21.9091 1.46055 23.9617C0.498322 26.0143 -0.000268932 28.2526 1.08823e-07 30.5184C0.00135607 34.6222 1.6358 38.5577 4.54436 41.4604C7.45291 44.3632 11.3977 45.9959 15.5124 46H68.0609C71.7601 45.9919 75.305 44.5202 77.9174 41.908C80.5298 39.2958 82.0014 35.7566 82 32.0671Z" fill="#E4E4E7"/>
</svg>
