<svg width="15" height="15" viewBox="0 0 15 15" fill="none" xmlns="http://www.w3.org/2000/svg">
<path d="M11.7 4.3617C12.1476 4.3617 12.5769 4.17934 12.8934 3.85475C13.2099 3.53015 13.3877 3.0899 13.3877 2.63085C13.3877 2.1718 13.2099 1.73155 12.8934 1.40695C12.5769 1.08235 12.1476 0.899994 11.7 0.899994C11.2524 0.899994 10.8231 1.08235 10.5066 1.40695C10.1901 1.73155 10.0123 2.1718 10.0123 2.63085C10.0123 3.0899 10.1901 3.53015 10.5066 3.85475C10.8231 4.17934 11.2524 4.3617 11.7 4.3617Z" stroke="#333333" stroke-width="1.2" stroke-linejoin="round"/>
<path d="M3.59894 4.97451L6.30023 4.01492L10.0121 5.83197L6.30023 8.66953L10.0121 11.1758L7.65205 14.4M11.4702 6.6614L12.3755 7.16646L14.4 5.21544M5.23565 10.0892L4.23317 11.4434L0.900024 13.3612" stroke="#333333" stroke-width="1.2" stroke-linecap="round" stroke-linejoin="round"/>
</svg>
