<svg width="28" height="21" viewBox="0 0 28 21" fill="none" xmlns="http://www.w3.org/2000/svg">
<path d="M1.55554 3.37037C1.55554 2.47649 1.94887 1.61923 2.64901 0.987159C3.34915 0.355092 4.29873 0 5.28888 0H7.15554C7.48559 0 7.80212 0.118364 8.0355 0.329053C8.26888 0.539742 8.39999 0.825497 8.39999 1.12346C8.39999 1.42142 8.26888 1.70717 8.0355 1.91786C7.80212 2.12855 7.48559 2.24691 7.15554 2.24691H5.28888C4.95883 2.24691 4.6423 2.36528 4.40892 2.57597C4.17554 2.78666 4.04443 3.07241 4.04443 3.37037V5.05556C4.04443 5.35351 3.91332 5.63927 3.67994 5.84996C3.44656 6.06065 3.13003 6.17901 2.79999 6.17901C2.46994 6.17901 2.15341 6.06065 1.92003 5.84996C1.68665 5.63927 1.55554 5.35351 1.55554 5.05556V3.37037ZM19.6 1.12346C19.6 0.825497 19.7311 0.539742 19.9645 0.329053C20.1979 0.118364 20.5144 0 20.8444 0H22.7111C23.7012 0 24.6508 0.355092 25.351 0.987159C26.0511 1.61923 26.4444 2.47649 26.4444 3.37037V5.05556C26.4444 5.35351 26.3133 5.63927 26.0799 5.84996C25.8466 6.06065 25.53 6.17901 25.2 6.17901C24.8699 6.17901 24.5534 6.06065 24.32 5.84996C24.0867 5.63927 23.9555 5.35351 23.9555 5.05556V3.37037C23.9555 3.07241 23.8244 2.78666 23.5911 2.57597C23.3577 2.36528 23.0411 2.24691 22.7111 2.24691H20.8444C20.5144 2.24691 20.1979 2.12855 19.9645 1.91786C19.7311 1.70717 19.6 1.42142 19.6 1.12346ZM2.79999 14.0432C3.13003 14.0432 3.44656 14.1616 3.67994 14.3723C3.91332 14.583 4.04443 14.8687 4.04443 15.1667V16.8519C4.04443 17.1498 4.17554 17.4356 4.40892 17.6463C4.6423 17.8569 4.95883 17.9753 5.28888 17.9753H7.15554C7.48559 17.9753 7.80212 18.0937 8.0355 18.3044C8.26888 18.515 8.39999 18.8008 8.39999 19.0988C8.39999 19.3967 8.26888 19.6825 8.0355 19.8932C7.80212 20.1039 7.48559 20.2222 7.15554 20.2222H5.28888C4.29873 20.2222 3.34915 19.8671 2.64901 19.2351C1.94887 18.603 1.55554 17.7457 1.55554 16.8519V15.1667C1.55554 14.8687 1.68665 14.583 1.92003 14.3723C2.15341 14.1616 2.46994 14.0432 2.79999 14.0432ZM25.2 14.0432C25.53 14.0432 25.8466 14.1616 26.0799 14.3723C26.3133 14.583 26.4444 14.8687 26.4444 15.1667V16.8519C26.4444 17.7457 26.0511 18.603 25.351 19.2351C24.6508 19.8671 23.7012 20.2222 22.7111 20.2222H20.8444C20.5144 20.2222 20.1979 20.1039 19.9645 19.8932C19.7311 19.6825 19.6 19.3967 19.6 19.0988C19.6 18.8008 19.7311 18.515 19.9645 18.3044C20.1979 18.0937 20.5144 17.9753 20.8444 17.9753H22.7111C23.0411 17.9753 23.3577 17.8569 23.5911 17.6463C23.8244 17.4356 23.9555 17.1498 23.9555 16.8519V15.1667C23.9555 14.8687 24.0867 14.583 24.32 14.3723C24.5534 14.1616 24.8699 14.0432 25.2 14.0432ZM6.53332 4.21296C6.86337 4.21296 7.1799 4.33133 7.41327 4.54202C7.64665 4.7527 7.77776 5.03846 7.77776 5.33642V14.8858C7.77776 15.1838 7.64665 15.4695 7.41327 15.6802C7.1799 15.8909 6.86337 16.0093 6.53332 16.0093C6.20327 16.0093 5.88674 15.8909 5.65337 15.6802C5.41999 15.4695 5.28888 15.1838 5.28888 14.8858V5.33642C5.28888 5.03846 5.41999 4.7527 5.65337 4.54202C5.88674 4.33133 6.20327 4.21296 6.53332 4.21296ZM12.7555 5.33642C12.7555 5.03846 12.6244 4.7527 12.3911 4.54202C12.1577 4.33133 11.8411 4.21296 11.5111 4.21296C11.1811 4.21296 10.8645 4.33133 10.6311 4.54202C10.3978 4.7527 10.2667 5.03846 10.2667 5.33642V14.8858C10.2667 15.1838 10.3978 15.4695 10.6311 15.6802C10.8645 15.8909 11.1811 16.0093 11.5111 16.0093C11.8411 16.0093 12.1577 15.8909 12.3911 15.6802C12.6244 15.4695 12.7555 15.1838 12.7555 14.8858V5.33642ZM16.4889 4.21296C16.8189 4.21296 17.1355 4.33133 17.3688 4.54202C17.6022 4.7527 17.7333 5.03846 17.7333 5.33642V14.8858C17.7333 15.1838 17.6022 15.4695 17.3688 15.6802C17.1355 15.8909 16.8189 16.0093 16.4889 16.0093C16.1588 16.0093 15.8423 15.8909 15.6089 15.6802C15.3755 15.4695 15.2444 15.1838 15.2444 14.8858V5.33642C15.2444 5.03846 15.3755 4.7527 15.6089 4.54202C15.8423 4.33133 16.1588 4.21296 16.4889 4.21296ZM22.7111 5.33642C22.7111 5.03846 22.58 4.7527 22.3466 4.54202C22.1132 4.33133 21.7967 4.21296 21.4667 4.21296C21.1366 4.21296 20.8201 4.33133 20.5867 4.54202C20.3533 4.7527 20.2222 5.03846 20.2222 5.33642V14.8858C20.2222 15.1838 20.3533 15.4695 20.5867 15.6802C20.8201 15.8909 21.1366 16.0093 21.4667 16.0093C21.7967 16.0093 22.1132 15.8909 22.3466 15.6802C22.58 15.4695 22.7111 15.1838 22.7111 14.8858V5.33642Z" fill="#333333"/>
<rect y="9" width="28" height="2" rx="1" fill="#E6007E"/>
</svg>
