<svg width="12" height="16" viewBox="0 0 12 16" fill="none" xmlns="http://www.w3.org/2000/svg">
<path d="M10.3221 2.52001H7.96965C7.54458 2.52126 7.56048 3.10627 7.96965 3.10283H10.3221V3.40189H7.96965C7.54694 3.39846 7.56251 3.98315 7.96965 3.98471H10.3221V4.29034H7.96965C7.54694 4.29034 7.56251 4.87472 7.96965 4.87315H10.3221V5.16441H7.96965C7.55574 5.16722 7.56251 5.75222 7.96965 5.7541H10.3221V6.04597H7.96965C7.55574 6.04472 7.55405 6.62879 7.96965 6.62879H10.3221V6.92004H7.96965C7.55574 6.92129 7.55405 7.50598 7.96965 7.50317H10.3221V7.80161H7.96965C7.55574 7.79817 7.55405 8.38224 7.96965 8.38443H10.3221V8.67506H7.96965C7.55574 8.67474 7.56251 9.26006 7.96965 9.25818H10.3221V14.9329C10.3235 15.7976 11.7459 15.782 11.75 14.9329V1.65313C11.7459 1.25813 11.3946 0.75875 10.8166 0.757188H7.96965C7.54458 0.7575 7.56048 1.3425 7.96965 1.34L10.3221 1.34719V1.63782H7.96965C7.54525 1.63594 7.56116 2.22064 7.96965 2.22095H10.3221V2.52001ZM7.80788 12.5807C7.80653 11.5713 6.67344 10.4857 5.31969 11.1888V7.32817L4.44415 0.960939C4.42587 0.7925 4.27121 0.752813 4.16731 0.75C4.06002 0.752813 3.84512 0.7925 3.82176 0.960939L2.95063 7.32817V11.1888C1.59688 10.4857 0.500338 11.5782 0.5 12.5729C0.500338 13.4579 1.23813 14.1848 2.23652 14.1826C3.24236 14.1848 3.96594 13.3701 3.96594 12.5729V8.56255H4.30438V12.5729C4.30438 13.4654 5.053 14.126 5.88488 14.1679C5.871 14.6573 6.04394 15.3554 6.36952 15.6323C6.75128 15.9573 7.2058 15.5417 7.01932 15.2032C6.83927 14.8882 6.66261 14.7017 6.80611 14.0138C7.40582 13.7576 7.80653 13.2182 7.80788 12.5807ZM2.2751 13.3748C2.04689 13.3748 1.82803 13.2911 1.66666 13.1421C1.50528 12.9931 1.41463 12.791 1.41463 12.5802C1.41463 12.3695 1.50528 12.1674 1.66666 12.0184C1.82803 11.8694 2.04689 11.7857 2.2751 11.7857C2.74418 11.7882 3.12627 12.1435 3.12966 12.5807C3.12887 12.7902 3.03875 12.991 2.87882 13.1396C2.71888 13.2882 2.50199 13.3727 2.2751 13.3748ZM5.17585 12.5807C5.17664 12.3711 5.26677 12.1701 5.42675 12.0213C5.58673 11.8726 5.8037 11.7879 6.03074 11.7857C6.25781 11.7878 6.47485 11.8724 6.63481 12.0212C6.79478 12.17 6.88478 12.371 6.8853 12.5807C6.88495 12.7903 6.79498 12.9914 6.63495 13.1401C6.47492 13.2888 6.25777 13.3731 6.03074 13.3748C5.8038 13.3728 5.58682 13.2884 5.42681 13.1397C5.26681 12.9911 5.17664 12.7903 5.17585 12.5807Z" fill="#333333" stroke="#333333" stroke-width="0.24" stroke-linejoin="round"/>
</svg>
