<svg width="13" height="15" viewBox="0 0 13 15" fill="none" xmlns="http://www.w3.org/2000/svg">
<path fill-rule="evenodd" clip-rule="evenodd" d="M12.5 10.7635C12.4992 10.7967 12.4959 10.8298 12.4904 10.8625C12.5049 10.9377 12.5027 11.0152 12.484 11.0894C12.4653 11.1636 12.4306 11.2327 12.3824 11.2918C12.3342 11.3509 12.2736 11.3984 12.205 11.4311C12.1364 11.4638 12.0615 11.4807 11.9857 11.4808H2.38571C2.27315 11.4808 2.16169 11.5032 2.0577 11.5466C1.95371 11.5901 1.85922 11.6539 1.77962 11.7342C1.70003 11.8146 1.63689 11.91 1.59382 12.015C1.55074 12.12 1.52857 12.2325 1.52857 12.3462C1.52857 12.4598 1.55074 12.5723 1.59382 12.6773C1.63689 12.7823 1.70003 12.8777 1.77962 12.9581C1.85922 13.0384 1.95371 13.1022 2.0577 13.1457C2.16169 13.1892 2.27315 13.2115 2.38571 13.2115H11.9857C12.1221 13.2115 12.2529 13.2662 12.3494 13.3636C12.4458 13.461 12.5 13.5931 12.5 13.7308C12.5 13.8685 12.4458 14.0005 12.3494 14.0979C12.2529 14.1953 12.1221 14.25 11.9857 14.25H2.38571C1.88559 14.25 1.40595 14.0494 1.05231 13.6924C0.698673 13.3353 0.5 12.8511 0.5 12.3462V2.65385C0.5 2.14891 0.698673 1.66466 1.05231 1.30762C1.40595 0.950583 1.88559 0.75 2.38571 0.75H11.5743C12.0858 0.75 12.5 1.16815 12.5 1.68462V10.7635ZM4.44286 3.51923C4.30646 3.51923 4.17565 3.57394 4.0792 3.67131C3.98276 3.76868 3.92857 3.90075 3.92857 4.03846C3.92857 4.17617 3.98276 4.30824 4.0792 4.40561C4.17565 4.50299 4.30646 4.55769 4.44286 4.55769H8.55714C8.69354 4.55769 8.82435 4.50299 8.9208 4.40561C9.01725 4.30824 9.07143 4.17617 9.07143 4.03846C9.07143 3.90075 9.01725 3.76868 8.9208 3.67131C8.82435 3.57394 8.69354 3.51923 8.55714 3.51923H4.44286Z" fill="#333333"/>
</svg>
