<svg width="15" height="14" viewBox="0 0 15 14" fill="none" xmlns="http://www.w3.org/2000/svg">
<path d="M2.25758 14C1.26567 14 0.867398 12.4056 0.784739 11.7706C0.69575 11.1541 0.778375 10.5273 1.0252 9.94656C1.13369 9.67021 1.32029 9.42399 1.56666 9.23211C1.81303 9.04022 2.11071 8.90927 2.43042 8.85213C3.30961 8.71701 3.93332 9.18992 4.72986 9.35205C4.87948 9.39523 5.039 9.4028 5.19285 9.37404C5.34671 9.34527 5.48964 9.28115 5.60772 9.18793C5.72579 9.09471 5.81498 8.97556 5.86657 8.84212C5.91817 8.70867 5.93042 8.56548 5.90212 8.42652C5.57148 7.26453 3.21944 7.24426 2.25758 7.24426C2.25758 5.9877 3.79054 5.82556 4.88766 5.92014C5.53852 5.97666 6.17939 6.10369 6.79635 6.29846C7.17207 6.41331 7.60791 6.7038 8.02121 6.67678C8.64492 6.62949 8.77266 6.0485 8.50214 5.62289C7.84838 4.62304 5.99229 4.54197 4.88766 4.54197C4.88766 3.19082 6.18767 2.9341 7.43508 3.13678C8.07915 3.25077 8.70683 3.42981 9.30619 3.67048C9.68943 3.81911 10.1478 4.10285 10.5686 3.97449C11.6507 3.67723 10.5235 2.63685 10.0426 2.38689C9.70508 2.21944 9.34697 2.08794 8.97556 1.99506C8.56977 1.88696 8.07381 1.9275 8.44202 1.50189C9.01779 1.04521 9.73213 0.753509 10.4935 0.664176C11.9137 0.366923 13.875 0.312877 14.2207 1.92074C14.3359 2.76963 14.1093 3.62756 13.582 4.3393C12.1817 6.4919 10.4486 8.45489 8.43451 10.1695C7.36757 11.1528 6.21134 12.0544 4.97784 12.865C4.22638 13.3514 3.23447 14 2.25758 14Z" fill="#333333"/>
</svg>
