<svg width="22" height="18" viewBox="0 0 22 18" fill="none" xmlns="http://www.w3.org/2000/svg">
<path d="M19.4 16.5851L4.40002 1.97937M9.20002 7.76476C8.82661 8.16563 8.60002 8.69219 8.60002 9.26889C8.60002 10.5248 9.67454 11.5429 11 11.5429C11.6112 11.5429 12.169 11.3264 12.5927 10.97M19.4388 11.5429C20.265 10.3385 20.6 9.35636 20.6 9.35636C20.6 9.35636 18.4154 2.5636 11 2.5636C10.5837 2.5636 10.1839 2.58501 9.80002 2.62542M16.4 14.4911C15.0226 15.3467 13.2494 15.9517 11 15.9159C3.67695 15.7993 1.40002 9.35636 1.40002 9.35636C1.40002 9.35636 2.45788 6.0671 5.60002 4.06635" stroke-width="2" stroke-linecap="round"/>
</svg>
