<svg width="18" height="18" viewBox="0 0 18 18" fill="none" xmlns="http://www.w3.org/2000/svg">
<path d="M7 15C5.05 15 3.396 14.321 2.038 12.963C0.68 11.605 0.000666667 9.95067 0 8V2C0 1.45 0.196 0.979333 0.588 0.588C0.98 0.196667 1.45067 0.000666667 2 0H14.5C15.4667 0 16.2917 0.341667 16.975 1.025C17.6583 1.70833 18 2.53333 18 3.5C18 4.46667 17.6583 5.29167 16.975 5.975C16.2917 6.65833 15.4667 7 14.5 7H14V8C14 9.95 13.321 11.6043 11.963 12.963C10.605 14.3217 8.95067 15.0007 7 15ZM2 5H12V2H2V5ZM14 5H14.5C14.9167 5 15.271 4.85433 15.563 4.563C15.855 4.27167 16.0007 3.91733 16 3.5C15.9993 3.08267 15.8537 2.72867 15.563 2.438C15.2723 2.14733 14.918 2.00133 14.5 2H14V5ZM0 18V16H16V18H0Z" fill="black"/>
</svg>
