<svg width="24" height="23" viewBox="0 0 24 23" fill="none" xmlns="http://www.w3.org/2000/svg">
<path d="M8.2643 15.2679L16.3 7.23215M1.80359 17.6786C1.80359 18.1043 1.97247 18.5126 2.27317 18.8139C2.57388 19.1152 2.98183 19.2849 3.40752 19.2857H21.0925C21.5182 19.2849 21.9262 19.1152 22.2269 18.8139C22.5276 18.5126 22.6964 18.1043 22.6964 17.6786V14.4097C22.0025 14.2215 21.3898 13.8101 20.953 13.239C20.5162 12.668 20.2795 11.969 20.2795 11.25C20.2795 10.531 20.5162 9.83204 20.953 9.26098C21.3898 8.68991 22.0025 8.27854 22.6964 8.09037V4.82144C22.6964 4.39575 22.5276 3.98746 22.2269 3.68615C21.9262 3.38485 21.5182 3.21515 21.0925 3.21429H3.40752C2.98183 3.21515 2.57388 3.38485 2.27317 3.68615C1.97247 3.98746 1.80359 4.39575 1.80359 4.82144V8.08394C2.50305 8.26791 3.1219 8.67832 3.5635 9.2511C4.00511 9.82387 4.24461 10.5268 4.24461 11.25C4.24461 11.9733 4.00511 12.6761 3.5635 13.2489C3.1219 13.8217 2.50305 14.2321 1.80359 14.4161V17.6786Z" stroke="#E6007E" stroke-width="2" stroke-linecap="round" stroke-linejoin="round" fill="none"/>
<path d="M9.06785 8.83932C9.28097 8.83932 9.48537 8.75466 9.63606 8.60396C9.78676 8.45326 9.87143 8.24887 9.87143 8.03575C9.87143 7.82263 9.78676 7.61824 9.63606 7.46754C9.48537 7.31684 9.28097 7.23218 9.06785 7.23218C8.85473 7.23218 8.65034 7.31684 8.49964 7.46754C8.34894 7.61824 8.26428 7.82263 8.26428 8.03575C8.26428 8.24887 8.34894 8.45326 8.49964 8.60396C8.65034 8.75466 8.85473 8.83932 9.06785 8.83932ZM15.4964 15.2679C15.7095 15.2679 15.9139 15.1832 16.0646 15.0325C16.2153 14.8818 16.3 14.6774 16.3 14.4643C16.3 14.2512 16.2153 14.0468 16.0646 13.8961C15.9139 13.7454 15.7095 13.6607 15.4964 13.6607C15.2833 13.6607 15.0789 13.7454 14.9282 13.8961C14.7775 14.0468 14.6929 14.2512 14.6929 14.4643C14.6929 14.6774 14.7775 14.8818 14.9282 15.0325C15.0789 15.1832 15.2833 15.2679 15.4964 15.2679Z" stroke="#E6007E" stroke-width="2" stroke-linecap="round" stroke-linejoin="round" fill="none"/>
</svg>
