<svg width="352" height="107" viewBox="0 0 352 107" fill="none" xmlns="http://www.w3.org/2000/svg">
<path d="M343.766 0C348.313 0 352 3.68691 352 8.23438V36.6084C351.66 36.5874 351.316 36.5762 350.971 36.5762C341.876 36.5762 334.503 43.9467 334.503 53.0381C334.503 62.1294 341.876 69.499 350.971 69.499C351.316 69.499 351.66 69.4868 352 69.4658V98.7656C352 103.313 348.313 107 343.766 107H8.23438C3.68691 107 0 103.313 0 98.7656V69.499C9.09486 69.499 16.4677 62.1294 16.4678 53.0381C16.4678 43.9466 9.09493 36.5762 0 36.5762V8.23438C0 3.68691 3.68691 0 8.23438 0H343.766Z" fill="white"/>
</svg>
