<svg width="15" height="15" viewBox="0 0 15 15" fill="none" xmlns="http://www.w3.org/2000/svg">
<path d="M13.4834 0.75L10.8863 1.28128L12.697 3.69248L13.9989 3.42003L13.4834 0.75ZM8.94335 1.67634L7.64147 1.94198L9.45882 4.34637L10.7541 4.08073L8.94335 1.67634ZM5.70518 2.33022L4.4033 2.60949L6.22064 5.01387L7.51591 4.74823L5.70518 2.33022ZM2.46039 3.01135L1.81275 3.14077C1.46936 3.21148 1.16723 3.41976 0.972705 3.71987C0.778176 4.01998 0.707148 4.38738 0.775215 4.74142L1.03295 6.07644L4.27113 5.41574L2.46039 3.01135ZM1.03295 6.07644V12.8877C1.03295 13.249 1.1722 13.5955 1.42007 13.851C1.66793 14.1065 2.00412 14.25 2.35465 14.25H12.9283C13.6618 14.25 14.25 13.6438 14.25 12.8877V6.07644H1.03295Z" fill="#333333"/>
</svg>
