<svg width="26" height="26" viewBox="0 0 26 26" fill="none" xmlns="http://www.w3.org/2000/svg">
<g filter="url(#filter0_d_629_7939)">
<path d="M6.4375 17.5C5.85734 17.5 5.30094 17.2695 4.8907 16.8593C4.48047 16.4491 4.25 15.8927 4.25 15.3125V12.1875C4.25 11.9389 4.34877 11.7004 4.52459 11.5246C4.7004 11.3488 4.93886 11.25 5.1875 11.25C5.43614 11.25 5.6746 11.3488 5.85041 11.5246C6.02623 11.7004 6.125 11.9389 6.125 12.1875V15.3125C6.125 15.485 6.265 15.625 6.4375 15.625H19.5625C19.6454 15.625 19.7249 15.5921 19.7835 15.5335C19.8421 15.4749 19.875 15.3954 19.875 15.3125V12.1875C19.875 11.9389 19.9738 11.7004 20.1496 11.5246C20.3254 11.3488 20.5639 11.25 20.8125 11.25C21.0611 11.25 21.2996 11.3488 21.4754 11.5246C21.6512 11.7004 21.75 11.9389 21.75 12.1875V15.3125C21.75 15.8927 21.5195 16.4491 21.1093 16.8593C20.6991 17.2695 20.1427 17.5 19.5625 17.5H6.4375Z" fill="black"/>
<path d="M12.0625 9.61125V2.5C12.0625 2.25136 12.1613 2.0129 12.3371 1.83709C12.5129 1.66127 12.7514 1.5625 13 1.5625C13.2487 1.5625 13.4871 1.66127 13.6629 1.83709C13.8388 2.0129 13.9375 2.25136 13.9375 2.5V9.61125L16.4 7.15C16.487 7.063 16.5903 6.99399 16.704 6.9469C16.8177 6.89982 16.9395 6.87558 17.0625 6.87558C17.1856 6.87558 17.3074 6.89982 17.4211 6.9469C17.5347 6.99399 17.638 7.063 17.725 7.15C17.812 7.237 17.881 7.34029 17.9281 7.45396C17.9752 7.56763 17.9994 7.68946 17.9994 7.8125C17.9994 7.93554 17.9752 8.05737 17.9281 8.17104C17.881 8.28471 17.812 8.388 17.725 8.475L13.6625 12.5375C13.4867 12.7131 13.2485 12.8117 13 12.8117C12.7516 12.8117 12.5133 12.7131 12.3375 12.5375L8.27503 8.475C8.18803 8.388 8.11901 8.28471 8.07193 8.17104C8.02484 8.05737 8.00061 7.93554 8.00061 7.8125C8.00061 7.68946 8.02484 7.56763 8.07193 7.45396C8.11901 7.34029 8.18803 7.237 8.27503 7.15C8.36203 7.063 8.46531 6.99399 8.57898 6.9469C8.69266 6.89982 8.81449 6.87558 8.93753 6.87558C9.06056 6.87558 9.1824 6.89982 9.29607 6.9469C9.40974 6.99399 9.51303 7.063 9.60003 7.15L12.0625 9.61125Z" fill="black"/>
</g>

</svg>
