<svg width="13" height="15" viewBox="0 0 13 15" fill="none" xmlns="http://www.w3.org/2000/svg">
<path d="M5.32123 0.802073C5.38231 0.833703 5.43593 0.879076 5.47822 0.93493C5.52052 0.990785 5.55044 1.05573 5.56585 1.12511C5.58246 1.20129 6.03846 3.23979 6.03846 4.60714C6.03846 5.52321 5.63046 6.33996 4.99538 6.86936C4.76462 7.06221 4.65385 7.27243 4.65385 7.44793V7.91657C4.65385 7.93907 4.65508 7.96029 4.65754 7.98021C4.68892 8.21936 4.80246 9.10746 4.90862 10.0284C5.01292 10.9319 5.11539 11.9174 5.11539 12.3214C5.11539 12.8329 4.92088 13.3235 4.57466 13.6851C4.22844 14.0468 3.75886 14.25 3.26923 14.25C2.7796 14.25 2.31002 14.0468 1.9638 13.6851C1.61758 13.3235 1.42308 12.8329 1.42308 12.3214C1.42308 11.9164 1.52554 10.9329 1.62985 10.0284C1.736 9.10746 1.84954 8.21936 1.88092 7.98021L1.88462 7.91657V7.44793C1.88462 7.27243 1.77385 7.06221 1.54308 6.86936C1.21768 6.59839 0.954919 6.25429 0.774334 5.86264C0.59375 5.47099 0.499982 5.04186 0.5 4.60714C0.5 3.24461 0.952308 1.21672 0.972615 1.12607C0.996612 1.01888 1.05467 0.923349 1.13731 0.855052C1.21996 0.786755 1.32231 0.749725 1.42769 0.750002C1.68615 0.750002 1.89569 0.968894 1.89569 1.23889V4.12982C1.89205 4.19494 1.90123 4.26015 1.92265 4.32142C1.94408 4.38269 1.9773 4.43872 2.02026 4.48605C2.06322 4.53339 2.11501 4.57102 2.17244 4.59663C2.22987 4.62224 2.29171 4.63529 2.35415 4.63496C2.41659 4.63463 2.47831 4.62093 2.53548 4.59471C2.59266 4.5685 2.64408 4.53032 2.68658 4.48253C2.72909 4.43474 2.76176 4.37836 2.78259 4.31687C2.80342 4.25538 2.81196 4.19008 2.80769 4.125V1.23214C2.80769 1.10427 2.85632 0.981637 2.94287 0.891218C3.02943 0.800799 3.14682 0.750002 3.26923 0.750002C3.39164 0.750002 3.50903 0.800799 3.59559 0.891218C3.68214 0.981637 3.73077 1.10427 3.73077 1.23214V4.15007C3.73334 4.27667 3.78395 4.39701 3.87145 4.48462C3.95896 4.57224 4.0762 4.61995 4.19738 4.61727C4.31857 4.61458 4.43377 4.56172 4.51764 4.47031C4.60151 4.37889 4.64719 4.25642 4.64462 4.12982V1.23697C4.64462 0.96793 4.85323 0.750002 5.11169 0.750002C5.132 0.750002 5.22246 0.750002 5.32123 0.802073ZM7.42308 5.08929C7.42308 3.93844 7.86071 2.83472 8.63971 2.02095C9.41871 1.20717 10.4753 0.750002 11.5769 0.750002C11.6993 0.750002 11.8167 0.800799 11.9033 0.891218C11.9898 0.981637 12.0385 1.10427 12.0385 1.23214V6.99182L12.056 7.1625C12.1294 7.88218 12.1999 8.60219 12.2674 9.3225C12.3809 10.5336 12.5 11.8914 12.5 12.3214C12.5 12.8329 12.3055 13.3235 11.9593 13.6851C11.6131 14.0468 11.1435 14.25 10.6538 14.25C10.1642 14.25 9.69464 14.0468 9.34842 13.6851C9.0022 13.3235 8.80769 12.8329 8.80769 12.3214C8.80769 11.8914 8.92677 10.5336 9.04031 9.3225C9.09846 8.70825 9.15662 8.12004 9.2 7.68418L9.21846 7.5H8.34615C8.10134 7.5 7.86655 7.39841 7.69344 7.21757C7.52033 7.03673 7.42308 6.79146 7.42308 6.53571V5.08929Z" fill="#333333" stroke="#333333" stroke-width="0.6" stroke-linejoin="round"/>
</svg>
