<svg width="20" height="20" viewBox="0 0 20 20" fill="none" xmlns="http://www.w3.org/2000/svg">
<path d="M0 17.7143V7.42857C0 7.06667 0.0887498 6.72381 0.26625 6.4C0.44375 6.07619 0.688333 5.80952 1 5.6L8.5 0.457143C8.9375 0.152381 9.4375 0 10 0C10.5625 0 11.0625 0.152381 11.5 0.457143L19 5.6C19.3125 5.80952 19.5575 6.07619 19.735 6.4C19.9125 6.72381 20.0008 7.06667 20 7.42857V17.7143C20 18.3429 19.755 18.8811 19.265 19.3291C18.775 19.7771 18.1867 20.0008 17.5 20H13.75C13.3958 20 13.0992 19.8903 12.86 19.6709C12.6208 19.4514 12.5008 19.1802 12.5 18.8571V13.1429C12.5 12.819 12.38 12.5478 12.14 12.3291C11.9 12.1105 11.6033 12.0008 11.25 12H8.75C8.39583 12 8.09916 12.1097 7.86 12.3291C7.62083 12.5486 7.50083 12.8198 7.5 13.1429V18.8571C7.5 19.1809 7.38 19.4526 7.14 19.672C6.9 19.8914 6.60333 20.0008 6.25 20H2.5C1.8125 20 1.22417 19.7764 0.735 19.3291C0.245833 18.8819 0.000833333 18.3436 0 17.7143Z" fill="currentColor"/>
</svg>