<svg width="15" height="15" viewBox="0 0 15 15" fill="none" xmlns="http://www.w3.org/2000/svg">
<path d="M4.8 14.25C5.46274 14.25 6 13.7127 6 13.05V10.6853C6 10.0226 6.53726 9.48529 7.2 9.48529H7.8C8.46274 9.48529 9 10.0226 9 10.6853V13.05C9 13.7127 9.53726 14.25 10.2 14.25H11.55C12.2127 14.25 12.75 13.7127 12.75 13.05V8.54011C12.75 8.18496 13.0379 7.89706 13.3931 7.89706V7.89706C13.9735 7.89706 14.2568 7.18888 13.8367 6.78848L8.32784 1.53888C7.86432 1.09718 7.13567 1.09718 6.67216 1.53888L1.16333 6.78848C0.743154 7.18888 1.02655 7.89706 1.60695 7.89706V7.89706C1.9621 7.89706 2.25 8.18496 2.25 8.54011V13.05C2.25 13.7127 2.78726 14.25 3.45 14.25H4.8Z" fill="#333333" stroke="#333333" stroke-width="0.6" stroke-linejoin="round"/>
</svg>
