<svg width="20" height="21" viewBox="0 0 20 21" fill="none" xmlns="http://www.w3.org/2000/svg">
<path fill-rule="evenodd" clip-rule="evenodd" d="M9.54581 19.6859H10.4633L11.2916 18.6509C12.38 17.2909 13.6925 15.5468 14.7391 13.7418C15.7533 11.9918 16.6666 9.9401 16.6666 8.01927C16.6666 4.18177 13.8375 1.3526 9.99998 1.3526C6.16248 1.3526 3.33331 4.18177 3.33331 8.01927C3.33331 9.9301 4.21915 11.9818 5.22581 13.7418C6.26331 15.5559 7.57581 17.3051 8.70665 18.6718L9.54581 19.6859ZM4.99998 8.01927C4.99998 10.4776 6.98831 13.7243 8.92665 16.2693C9.26831 16.7193 9.61831 17.1418 9.94748 17.5393L9.99998 17.6026C10.335 17.1832 10.6814 16.7357 11.0391 16.2601C12.9608 13.7051 15 10.4768 15 8.01927C15 5.1026 12.9166 3.01927 9.99998 3.01927C7.08331 3.01927 4.99998 5.1026 4.99998 8.01927Z" fill="#71717A"/>
<path d="M10 8.85264C10.4603 8.85264 10.8334 8.47954 10.8334 8.01931C10.8334 7.55907 10.4603 7.18597 10 7.18597C9.53978 7.18597 9.16669 7.55907 9.16669 8.01931C9.16669 8.47954 9.53978 8.85264 10 8.85264Z" fill="#71717A"/>
<path fill-rule="evenodd" clip-rule="evenodd" d="M9.99998 9.68593C10.442 9.68593 10.8659 9.51034 11.1785 9.19778C11.4911 8.88522 11.6666 8.46129 11.6666 8.01927C11.6666 7.57724 11.4911 7.15332 11.1785 6.84076C10.8659 6.52819 10.442 6.3526 9.99998 6.3526C9.55795 6.3526 9.13403 6.52819 8.82147 6.84076C8.50891 7.15332 8.33331 7.57724 8.33331 8.01927C8.33331 8.46129 8.50891 8.88522 8.82147 9.19778C9.13403 9.51034 9.55795 9.68593 9.99998 9.68593Z" fill="#71717A"/>
</svg>
