<svg width="20" height="21" viewBox="0 0 20 21" fill="none" xmlns="http://www.w3.org/2000/svg">
<path fill-rule="evenodd" clip-rule="evenodd" d="M9.54584 19.686H10.4633L11.2917 18.6509C12.38 17.291 13.6925 15.5468 14.7392 13.7418C15.7533 11.9918 16.6667 9.94012 16.6667 8.01929C16.6667 4.18179 13.8375 1.35262 10 1.35262C6.16251 1.35262 3.33334 4.18179 3.33334 8.01929C3.33334 9.93012 4.21918 11.9818 5.22584 13.7418C6.26334 15.556 7.57584 17.3051 8.70668 18.6718L9.54584 19.686ZM5.00001 8.01929C5.00001 10.4776 6.98834 13.7243 8.92668 16.2693C9.26834 16.7193 9.61834 17.1418 9.94751 17.5393L10 17.6026C10.335 17.1832 10.6814 16.7357 11.0392 16.2601C12.9608 13.7051 15 10.4768 15 8.01929C15 5.10262 12.9167 3.01929 10 3.01929C7.08334 3.01929 5.00001 5.10262 5.00001 8.01929Z" fill="#E4E4E7"/>
<path d="M9.99999 8.85262C10.4602 8.85262 10.8333 8.47953 10.8333 8.01929C10.8333 7.55905 10.4602 7.18596 9.99999 7.18596C9.53975 7.18596 9.16666 7.55905 9.16666 8.01929C9.16666 8.47953 9.53975 8.85262 9.99999 8.85262Z" fill="#E4E4E7"/>
<path fill-rule="evenodd" clip-rule="evenodd" d="M10 9.68595C10.442 9.68595 10.866 9.51036 11.1785 9.1978C11.4911 8.88524 11.6667 8.46131 11.6667 8.01929C11.6667 7.57726 11.4911 7.15334 11.1785 6.84077C10.866 6.52821 10.442 6.35262 10 6.35262C9.55798 6.35262 9.13406 6.52821 8.8215 6.84077C8.50894 7.15334 8.33334 7.57726 8.33334 8.01929C8.33334 8.46131 8.50894 8.88524 8.8215 9.1978C9.13406 9.51036 9.55798 9.68595 10 9.68595Z" fill="#E4E4E7"/>
</svg>
