<svg width="17" height="20" viewBox="0 0 17 20" fill="none" xmlns="http://www.w3.org/2000/svg">
<path d="M7.69577 19.5002L7.44469 19.3344C6.18811 18.4771 5.02045 17.5021 3.95838 16.4233C2.09231 14.5171 0 11.6595 0 8.2869C0 4.13771 3.45362 0 8.5 0C13.5464 0 17 4.13771 17 8.28817C17 11.6608 14.9077 14.5183 13.0416 16.4221C11.9795 17.5008 10.8119 18.4758 9.55531 19.3331C9.44895 19.4054 9.36526 19.4606 9.30423 19.4989C9.03877 19.671 8.76808 19.8342 8.5 20C8.23192 19.8342 7.96123 19.671 7.69577 19.5002ZM8.5 10.8384C9.19364 10.8384 9.85888 10.5697 10.3494 10.0914C10.8398 9.61319 11.1154 8.96453 11.1154 8.28817C11.1154 7.61182 10.8398 6.96316 10.3494 6.4849C9.85888 6.00665 9.19364 5.73797 8.5 5.73797C7.80636 5.73797 7.14112 6.00665 6.65064 6.4849C6.16016 6.96316 5.88462 7.61182 5.88462 8.28817C5.88462 8.96453 6.16016 9.61319 6.65064 10.0914C7.14112 10.5697 7.80636 10.8384 8.5 10.8384Z" fill="currentColor"/>
</svg>
