<svg width="20" height="14" viewBox="0 0 20 14" fill="none" xmlns="http://www.w3.org/2000/svg">
<path d="M10 4.27255C10.7233 4.27255 11.417 4.55989 11.9285 5.07135C12.4399 5.58281 12.7273 6.2765 12.7273 6.99982C12.7273 7.72314 12.4399 8.41683 11.9285 8.9283C11.417 9.43976 10.7233 9.7271 10 9.7271C9.27668 9.7271 8.58299 9.43976 8.07153 8.9283C7.56006 8.41683 7.27273 7.72314 7.27273 6.99982C7.27273 6.2765 7.56006 5.58281 8.07153 5.07135C8.58299 4.55989 9.27668 4.27255 10 4.27255ZM10 0.181641C14.5455 0.181641 18.4273 3.00891 20 6.99982C18.4273 10.9907 14.5455 13.818 10 13.818C5.45455 13.818 1.57273 10.9907 0 6.99982C1.57273 3.00891 5.45455 0.181641 10 0.181641ZM1.98182 6.99982C2.71659 8.5001 3.85755 9.76414 5.27498 10.6482C6.69241 11.5323 8.32945 12.001 10 12.001C11.6705 12.001 13.3076 11.5323 14.725 10.6482C16.1425 9.76414 17.2834 8.5001 18.0182 6.99982C17.2834 5.49954 16.1425 4.23551 14.725 3.35141C13.3076 2.46731 11.6705 1.99862 10 1.99862C8.32945 1.99862 6.69241 2.46731 5.27498 3.35141C3.85755 4.23551 2.71659 5.49954 1.98182 6.99982Z"/>
</svg>
