<svg width="20" height="20" viewBox="0 0 20 20" fill="none" xmlns="http://www.w3.org/2000/svg">
<path d="M18.1019 14.9536C17.4262 14.2728 15.7898 13.2793 14.9959 12.879C13.962 12.3582 13.8769 12.3156 13.0642 12.9194C12.5221 13.3223 12.1618 13.6823 11.5274 13.547C10.893 13.4117 9.51444 12.6488 8.30735 11.4455C7.10027 10.2423 6.29314 8.82374 6.15741 8.19147C6.02168 7.55921 6.38759 7.20309 6.78669 6.65975C7.34917 5.89389 7.30663 5.76624 6.82583 4.73233C6.45099 3.92818 5.42856 2.3071 4.74524 1.63484C4.01427 0.912807 4.01427 1.04045 3.54327 1.23617C3.1598 1.39748 2.79192 1.59359 2.44425 1.82206C1.76349 2.27434 1.38566 2.65004 1.12144 3.21465C0.857217 3.77926 0.738509 5.10292 2.10302 7.58176C3.46753 10.0606 4.42486 11.3281 6.40631 13.304C8.38777 15.28 9.91141 16.3424 12.1388 17.5916C14.8942 19.1348 15.9511 18.834 16.5174 18.5702C17.0837 18.3064 17.4611 17.932 17.9142 17.2512C18.1433 16.9041 18.3398 16.5366 18.5014 16.1535C18.6975 15.6842 18.8252 15.6842 18.1019 14.9536Z" fill="#E4E4E7" stroke="#E4E4E7" stroke-width="1.5" stroke-miterlimit="10" stroke-linejoin="round"/>
</svg>
