<svg width="20" height="20" viewBox="0 0 20 20" fill="none" xmlns="http://www.w3.org/2000/svg">
<path d="M18.1019 14.9541C17.4263 14.2733 15.7899 13.2798 14.9959 12.8795C13.962 12.3587 13.8769 12.3161 13.0643 12.9199C12.5222 13.3228 12.1618 13.6828 11.5274 13.5475C10.893 13.4122 9.5145 12.6493 8.30741 11.446C7.10033 10.2428 6.2932 8.82422 6.15747 8.19196C6.02174 7.5597 6.38765 7.20357 6.78675 6.66024C7.34923 5.89438 7.30669 5.76673 6.8259 4.73282C6.45105 3.92866 5.42862 2.30759 4.7453 1.63533C4.01433 0.913295 4.01433 1.04094 3.54333 1.23666C3.15986 1.39796 2.79198 1.59408 2.44431 1.82254C1.76355 2.27483 1.38572 2.65053 1.1215 3.21514C0.857278 3.77975 0.73857 5.10341 2.10308 7.58225C3.46759 10.0611 4.42492 11.3286 6.40637 13.3045C8.38783 15.2804 9.91147 16.3429 12.1389 17.5921C14.8943 19.1353 15.9511 18.8345 16.5175 18.5707C17.0838 18.3069 17.4612 17.9324 17.9143 17.2517C18.1433 16.9046 18.3399 16.5371 18.5015 16.1539C18.6976 15.6846 18.8253 15.6846 18.1019 14.9541Z" fill="#71717A" stroke="#71717A" stroke-width="1.5" stroke-miterlimit="10" stroke-linejoin="round"/>
</svg>
