<svg width="13" height="15" viewBox="0 0 13 15" fill="none" xmlns="http://www.w3.org/2000/svg">
<path fill-rule="evenodd" clip-rule="evenodd" d="M3.125 4.125V3.7875C3.125 2.9819 3.48058 2.2093 4.11351 1.63966C4.74645 1.07002 5.60489 0.75 6.5 0.75C7.39511 0.75 8.25355 1.07002 8.88649 1.63966C9.51942 2.2093 9.875 2.9819 9.875 3.7875V4.125H11.75C12.164 4.125 12.5 4.42808 12.5 4.80473V12.9054C12.5 13.6479 11.8288 14.25 11.0045 14.25H1.9955C1.59913 14.25 1.21897 14.1084 0.938552 13.8563C0.658134 13.6041 0.500398 13.2621 0.5 12.9054V4.8054C0.5 4.42875 0.83375 4.125 1.25 4.125H3.125ZM4.25 4.125H8.75V3.7875C8.75 3.25044 8.51295 2.73537 8.09099 2.35561C7.66903 1.97585 7.09674 1.7625 6.5 1.7625C5.90326 1.7625 5.33097 1.97585 4.90901 2.35561C4.48705 2.73537 4.25 3.25044 4.25 3.7875V4.125ZM3.125 4.125V6.825H4.25V4.125H3.125ZM8.75 4.125V6.825H9.875V4.125H8.75Z" fill="#333333"/>
<path d="M3.125 4.125V3.7875C3.125 2.9819 3.48058 2.2093 4.11351 1.63966C4.74645 1.07002 5.60489 0.75 6.5 0.75C7.39511 0.75 8.25355 1.07002 8.88649 1.63966C9.51942 2.2093 9.875 2.9819 9.875 3.7875V4.125M3.125 4.125H1.25C0.83375 4.125 0.5 4.42875 0.5 4.8054V12.9054C0.500398 13.2621 0.658134 13.6041 0.938552 13.8563C1.21897 14.1084 1.59913 14.25 1.9955 14.25H11.0045C11.8288 14.25 12.5 13.6479 12.5 12.9054V4.80473C12.5 4.42808 12.164 4.125 11.75 4.125H9.875M3.125 4.125V6.825H4.25V4.125M3.125 4.125H4.25M9.875 4.125V6.825H8.75V4.125M9.875 4.125H8.75M4.25 4.125H8.75M4.25 4.125V3.7875C4.25 3.25044 4.48705 2.73537 4.90901 2.35561C5.33097 1.97585 5.90326 1.7625 6.5 1.7625C7.09674 1.7625 7.66903 1.97585 8.09099 2.35561C8.51295 2.73537 8.75 3.25044 8.75 3.7875V4.125" stroke="#333333" stroke-width="0.6" stroke-linejoin="round"/>
</svg>
