<svg width="28" height="22" viewBox="0 0 28 22" fill="none" xmlns="http://www.w3.org/2000/svg">
<path d="M26.3886 19.0902C26.1947 19.2756 25.8891 19.2749 25.696 19.0887L23.3194 16.7966C23.1149 16.5994 23.1156 16.2717 23.3209 16.0753L23.5318 15.8737C23.7245 15.6895 24.0278 15.6889 24.2213 15.8722L26.6187 18.1444C26.8262 18.341 26.8269 18.6712 26.6203 18.8687L26.3886 19.0902ZM22.0609 4.03754C21.8675 4.22091 21.5641 4.22025 21.3715 4.03604L21.1621 3.83592C20.9562 3.63903 20.9562 3.31011 21.1621 3.11318L23.5404 0.838377C23.7318 0.655326 24.0327 0.653251 24.2266 0.833644L24.4498 1.04131C24.661 1.23782 24.6625 1.57182 24.4531 1.77028L22.0609 4.03754ZM6.63146 4.05857C6.43759 4.24417 6.13177 4.24362 5.93859 4.05731L3.56083 1.76418C3.35633 1.56696 3.35705 1.2392 3.5624 1.04287L3.77455 0.840036C3.96726 0.655795 4.27064 0.655169 4.4641 0.838613L6.86196 3.11222C7.06923 3.30875 7.07002 3.63868 6.86371 3.83621L6.63146 4.05857ZM2.28284 19.0857C2.08766 19.2724 1.7795 19.2703 1.58684 19.081L1.36798 18.866C1.16662 18.6682 1.16883 18.343 1.37286 18.1479L3.75725 15.8683C3.94874 15.6853 4.24979 15.6833 4.44362 15.8639L4.66783 16.0728C4.87814 16.2688 4.88032 16.6013 4.67259 16.8L2.28284 19.0857ZM8.81346 18.1281C8.70958 18.5548 9.16688 18.8986 9.54791 18.6802L13.7496 16.272C13.9045 16.1832 14.095 16.1837 14.2494 16.2734L18.4759 18.7294C18.8564 18.9505 19.3163 18.6077 19.2132 18.1798L18.1314 13.6942C18.0865 13.5082 18.1518 13.3129 18.2995 13.1912L21.9099 10.2156C22.2556 9.93075 22.0811 9.37001 21.6348 9.33163L16.827 8.91815C16.6468 8.90266 16.489 8.79105 16.4144 8.6263L14.4563 4.30346C14.2788 3.91155 13.722 3.91196 13.5451 4.30413L11.6115 8.58961C11.5368 8.7553 11.378 8.86737 11.1968 8.88229L6.38564 9.27832C5.93998 9.315 5.76291 9.87353 6.10603 10.1603L9.72878 13.188C9.87497 13.3101 9.93902 13.5048 9.89396 13.6899L8.81346 18.1281ZM7.48929 21.4181C7.10797 21.6372 6.64991 21.2927 6.75458 20.8655L8.39176 14.184C8.43742 13.9977 8.37245 13.8017 8.22456 13.6795L2.76717 9.1715C2.42109 8.88563 2.59783 8.32387 3.04525 8.28764L10.2798 7.70181C10.462 7.68706 10.6216 7.57406 10.6961 7.40712L13.5451 1.01964C13.7211 0.625169 14.2807 0.624348 14.4578 1.0183L17.3305 7.40838C17.4052 7.57462 17.5645 7.68702 17.7462 7.70173L24.9817 8.28764C25.4291 8.32387 25.6059 8.88563 25.2598 9.1715L19.8024 13.6795C19.6545 13.8017 19.5896 13.9977 19.6352 14.184L21.273 20.868C21.3776 21.2948 20.9203 21.6392 20.5389 21.4209L14.2488 17.82C14.0947 17.7318 13.9053 17.7319 13.7513 17.8204L7.48929 21.4181Z" fill="currentColor"/>
<path d="M13.0885 0.815922C13.4404 0.0271297 14.5594 0.0254042 14.9137 0.812992L17.7867 7.20362L25.0221 7.78955C25.9169 7.86204 26.2699 8.98539 25.5778 9.55713L20.1207 14.0649L21.7584 20.7485C21.9676 21.602 21.0533 22.2914 20.2907 21.855L14.0006 18.2544L7.73792 21.8521C6.97538 22.2896 6.05989 21.6007 6.26917 20.7466L7.90589 14.0649L2.44886 9.55713C1.7568 8.98547 2.10998 7.86231 3.00452 7.78955L10.2399 7.20362L13.0885 0.815922ZM11.153 7.61084C11.004 7.94472 10.6843 8.1702 10.32 8.19971L3.08558 8.78565L8.54261 13.2944C8.8384 13.5388 8.96887 13.9306 8.87757 14.3032L7.23987 20.9849L13.5026 17.3872C13.8105 17.2103 14.1895 17.2098 14.4977 17.3862L20.7877 20.9868L19.15 14.3032C19.0587 13.9307 19.1884 13.5388 19.484 13.2944L24.941 8.78565L17.7057 8.19971C17.3426 8.17025 17.0242 7.946 16.8746 7.61377L14.0016 1.22315L11.153 7.61084ZM23.1862 15.5122C23.5715 15.1438 24.1781 15.1426 24.5651 15.5093L26.9625 17.7817C27.3774 18.175 27.3786 18.835 26.9655 19.23L26.734 19.4517C26.3463 19.8223 25.7354 19.8209 25.3492 19.4487L22.9723 17.1567C22.5634 16.7624 22.5648 16.107 22.9752 15.7144L23.1862 15.5122ZM3.41175 15.5073C3.79473 15.1412 4.39714 15.1374 4.7848 15.4985L5.00843 15.7065C5.42906 16.0985 5.43366 16.7642 5.01819 17.1616L2.62855 19.4468C2.23818 19.8201 1.6213 19.8165 1.23597 19.438L1.01722 19.2231C0.614563 18.8276 0.619139 18.1768 1.02698 17.7866L3.41175 15.5073ZM13.0895 4.09815C13.4435 3.31416 14.5568 3.31347 14.9117 4.09717L16.8698 8.42041L21.6774 8.8335C22.5698 8.91025 22.9191 10.0312 22.2282 10.6011L18.6178 13.5767L19.6989 18.063C19.905 18.9185 18.9852 19.6038 18.2242 19.1616L13.9987 16.7056L9.79651 19.1138C9.03456 19.5505 8.12033 18.8635 8.32776 18.0103L9.40784 13.5718L5.78577 10.5444C5.0996 9.97097 5.45323 8.85334 6.34437 8.77979L11.1559 8.38428L13.0895 4.09815ZM23.6666 16.437L26.0436 18.729L26.275 18.5073L23.8776 16.2349L23.6666 16.437ZM1.71839 18.5093L1.93714 18.7241L4.32679 16.439L4.10316 16.23L1.71839 18.5093ZM12.067 8.79541C11.9175 9.12664 11.6001 9.35051 11.2379 9.38037L6.4264 9.77686L10.0494 12.8042C10.3418 13.0486 10.4697 13.4379 10.3795 13.8081L9.29944 18.2466L13.5006 15.8384C13.8105 15.6608 14.1918 15.6619 14.5006 15.8413L18.7272 18.2974L17.6451 13.811C17.5556 13.4392 17.686 13.0485 17.9811 12.8052L21.5924 9.82959L16.7838 9.41651C16.4236 9.3854 16.1078 9.16192 15.9586 8.83252L14.0006 4.51026L12.067 8.79541ZM3.42933 0.479008C3.81475 0.110525 4.4213 0.10919 4.80823 0.476078L7.20569 2.74952C7.62023 3.14258 7.62224 3.8027 7.2096 4.19776L6.97718 4.41944C6.58949 4.79062 5.97781 4.79001 5.59144 4.41748L3.21351 2.12452C2.80454 1.73011 2.80581 1.07382 3.21644 0.681156L3.42933 0.479008ZM23.195 0.477055C23.5776 0.111101 24.1793 0.106738 24.567 0.467289L24.7907 0.675297C25.2129 1.0683 25.2161 1.73643 24.7975 2.1333L22.4049 4.40088C22.0179 4.76743 21.4113 4.76533 21.026 4.39698L20.817 4.19776C20.4052 3.80399 20.4043 3.14534 20.816 2.75147L23.195 0.477055ZM3.90784 1.40381L6.28577 3.69776L6.51819 3.4751L4.11976 1.20166L3.90784 1.40381ZM21.5075 3.47412L21.7174 3.67432L24.109 1.40772L23.8864 1.19971L21.5075 3.47412Z" fill="currentColor"/>
</svg>
