<svg width="28" height="22" viewBox="0 0 28 22" fill="none" xmlns="http://www.w3.org/2000/svg">
<path d="M26.3887 19.0903C26.1948 19.2757 25.8892 19.275 25.6961 19.0888L23.3194 16.7968C23.1149 16.5995 23.1156 16.2718 23.321 16.0755L23.5319 15.8738C23.7245 15.6896 24.0279 15.689 24.2213 15.8723L26.6188 18.1446C26.8262 18.3412 26.8269 18.6714 26.6203 18.8689L26.3887 19.0903ZM22.061 4.03765C21.8675 4.22103 21.5642 4.22037 21.3715 4.03616L21.1622 3.83603C20.9563 3.63914 20.9562 3.31023 21.1621 3.1133L23.5404 0.838494C23.7318 0.655443 24.0327 0.653368 24.2266 0.833761L24.4498 1.04143C24.661 1.23794 24.6626 1.57194 24.4532 1.77039L22.061 4.03765ZM6.63151 4.05868C6.43764 4.24429 6.13182 4.24373 5.93864 4.05742L3.56088 1.76429C3.35638 1.56708 3.35709 1.23931 3.56244 1.04299L3.7746 0.840153C3.96731 0.655912 4.27068 0.655286 4.46415 0.83873L6.86201 3.11233C7.06928 3.30887 7.07007 3.6388 6.86376 3.83633L6.63151 4.05868ZM2.28289 19.0858C2.08771 19.2725 1.77955 19.2704 1.58689 19.0812L1.36803 18.8661C1.16666 18.6683 1.16887 18.3431 1.37291 18.1481L3.7573 15.8685C3.94879 15.6854 4.24983 15.6835 4.44366 15.864L4.66788 16.0729C4.87819 16.2689 4.88037 16.6014 4.67263 16.8001L2.28289 19.0858ZM8.81351 18.1282C8.70963 18.555 9.16693 18.8987 9.54796 18.6803L13.7496 16.2721C13.9046 16.1833 14.0951 16.1838 14.2495 16.2736L18.4759 18.7295C18.8565 18.9506 19.3164 18.6078 19.2132 18.18L18.1314 13.6944C18.0866 13.5083 18.1518 13.313 18.2995 13.1913L21.91 10.2158C22.2557 9.93087 22.0811 9.37013 21.6348 9.33175L16.8271 8.91827C16.6469 8.90277 16.4891 8.79117 16.4145 8.62641L14.4563 4.30358C14.2788 3.91167 13.7221 3.91208 13.5451 4.30425L11.6116 8.58972C11.5368 8.75542 11.378 8.86749 11.1968 8.8824L6.38569 9.27844C5.94003 9.31512 5.76296 9.87365 6.10607 10.1604L9.72883 13.1881C9.87502 13.3103 9.93907 13.5049 9.89401 13.69L8.81351 18.1282ZM7.48934 21.4182C7.10801 21.6373 6.64996 21.2928 6.75462 20.8657L8.39181 14.1841C8.43746 13.9978 8.3725 13.8018 8.22461 13.6796L2.76722 9.17162C2.42114 8.88575 2.59788 8.32399 3.0453 8.28776L10.2799 7.70193C10.4621 7.68718 10.6217 7.57417 10.6962 7.40723L13.5452 1.01975C13.7211 0.625286 14.2807 0.624465 14.4578 1.01841L17.3305 7.40849C17.4053 7.57474 17.5645 7.68714 17.7462 7.70185L24.9818 8.28776C25.4292 8.32399 25.6059 8.88575 25.2598 9.17162L19.8025 13.6796C19.6546 13.8018 19.5896 13.9978 19.6353 14.1841L21.273 20.8681C21.3776 21.2949 20.9203 21.6393 20.539 21.421L14.2489 17.8201C14.0947 17.7319 13.9054 17.732 13.7514 17.8205L7.48934 21.4182Z" fill="white" stroke="white" stroke-linejoin="round"/>
</svg>
