<svg width="15" height="13" viewBox="0 0 15 13" fill="none" xmlns="http://www.w3.org/2000/svg">
<path fill-rule="evenodd" clip-rule="evenodd" d="M11.625 0C11.8579 0 12.0875 0.0522096 12.2958 0.152494C12.5041 0.252779 12.6853 0.398383 12.825 0.577778L14.841 3.16622C14.9419 3.29402 14.9958 3.45056 14.994 3.61111H15V4.33333C15 5.03704 14.7334 5.71656 14.25 6.24433V11.5556C14.25 11.9386 14.092 12.306 13.8107 12.5769C13.5294 12.8478 13.1478 13 12.75 13H2.25C1.85218 13 1.47064 12.8478 1.18934 12.5769C0.908035 12.306 0.75 11.9386 0.75 11.5556V6.24433C0.266643 5.71656 -4.5426e-05 5.03704 5.80372e-09 4.33333V3.61111H0.00599993C0.00422768 3.45056 0.0580633 3.29402 0.159 3.16622L2.175 0.577778C2.31472 0.398383 2.4959 0.252779 2.70418 0.152494C2.91246 0.0522096 3.14213 0 3.375 0H11.625ZM9.75 6.24433C9.46846 6.5517 9.12222 6.79786 8.73429 6.96646C8.34636 7.13506 7.92561 7.22224 7.5 7.22222C7.07439 7.22224 6.65364 7.13506 6.26571 6.96646C5.87778 6.79786 5.53154 6.5517 5.25 6.24433C4.90509 6.62204 4.46352 6.90624 3.96919 7.06867C3.47486 7.2311 2.94499 7.26611 2.43225 7.17022L2.25 7.13122V11.5556H12.75V7.13122L12.5677 7.17022C12.0549 7.26603 11.525 7.2309 11.0307 7.06834C10.5364 6.90578 10.0948 6.62217 9.75 6.24433ZM13.5 4.33333H10.5C10.4983 4.70815 10.6479 5.06895 10.9173 5.3395C11.1867 5.61005 11.5547 5.76916 11.9437 5.78322C12.3327 5.79729 12.7121 5.6652 13.0018 5.41487C13.2915 5.16453 13.4688 4.81556 13.4962 4.44167L13.5 4.33333ZM9 4.33333H6C5.99826 4.70815 6.14789 5.06895 6.41728 5.3395C6.68668 5.61005 7.05474 5.76916 7.4437 5.78322C7.83267 5.79729 8.21208 5.6652 8.50179 5.41487C8.79149 5.16453 8.9688 4.81556 8.99625 4.44167L9 4.33333ZM4.5 4.33333H1.5C1.49826 4.70815 1.64789 5.06895 1.91728 5.3395C2.18668 5.61005 2.55474 5.76916 2.9437 5.78322C3.33267 5.79729 3.71208 5.6652 4.00179 5.41487C4.29149 5.16453 4.4688 4.81556 4.49625 4.44167L4.5 4.33333ZM11.625 1.44444H3.375L2.25 2.88889H12.75L11.625 1.44444Z" fill="#333333"/>
</svg>
