<svg width="20" height="21" viewBox="0 0 20 21" fill="none" xmlns="http://www.w3.org/2000/svg">
<path d="M10 17.792C10.9551 17.792 11.9008 17.6039 12.7832 17.2384C13.6655 16.8729 14.4673 16.3372 15.1426 15.6619C15.8179 14.9865 16.3536 14.1848 16.7191 13.3024C17.0846 12.4201 17.2727 11.4744 17.2727 10.5193C17.2727 9.56422 17.0846 8.6185 16.7191 7.73613C16.3536 6.85377 15.8179 6.05203 15.1426 5.37669C14.4673 4.70136 13.6655 4.16565 12.7832 3.80016C11.9008 3.43467 10.9551 3.24656 10 3.24656C8.07116 3.24656 6.22131 4.01279 4.85741 5.37669C3.49351 6.74059 2.72728 8.59044 2.72728 10.5193C2.72728 12.4481 3.49351 14.298 4.85741 15.6619C6.22131 17.0258 8.07116 17.792 10 17.792ZM18.8889 10.5193C18.8889 15.4284 14.9091 19.4082 10 19.4082C5.09091 19.4082 1.11111 15.4284 1.11111 10.5193C1.11111 5.6102 5.09091 1.6304 10 1.6304C14.9091 1.6304 18.8889 5.6102 18.8889 10.5193ZM12.4242 14.0862L9.19192 10.8538V5.26676H10.8081V10.1847L13.5669 12.9435L12.4242 14.0862Z" fill="#E4E4E7"/>
</svg>
