<svg width="20" height="21" viewBox="0 0 20 21" fill="none" xmlns="http://www.w3.org/2000/svg">
<path d="M9.99997 17.792C10.955 17.792 11.9008 17.6039 12.7831 17.2384C13.6655 16.8729 14.4672 16.3372 15.1426 15.6619C15.8179 14.9865 16.3536 14.1848 16.7191 13.3024C17.0846 12.42 17.2727 11.4743 17.2727 10.5193C17.2727 9.56419 17.0846 8.61847 16.7191 7.73611C16.3536 6.85374 15.8179 6.052 15.1426 5.37666C14.4672 4.70133 13.6655 4.16562 12.7831 3.80014C11.9008 3.43465 10.955 3.24653 9.99997 3.24653C8.07113 3.24653 6.22128 4.01276 4.85738 5.37666C3.49348 6.74057 2.72725 8.59041 2.72725 10.5193C2.72725 12.4481 3.49348 14.298 4.85738 15.6619C6.22128 17.0258 8.07113 17.792 9.99997 17.792ZM18.8889 10.5193C18.8889 15.4283 14.9091 19.4081 9.99997 19.4081C5.09088 19.4081 1.11108 15.4283 1.11108 10.5193C1.11108 5.61017 5.09088 1.63037 9.99997 1.63037C14.9091 1.63037 18.8889 5.61017 18.8889 10.5193ZM12.4242 14.0861L9.19189 10.8538V5.26673H10.8081V10.1847L13.5668 12.9435L12.4242 14.0861Z" fill="#71717A"/>
</svg>
