<svg width="18" height="18" viewBox="0 0 18 18" fill="none" xmlns="http://www.w3.org/2000/svg">
<path d="M4.55566 6.92633C4.55566 6.29759 4.80543 5.6946 5.25002 5.25002C5.6946 4.80543 6.29759 4.55566 6.92633 4.55566H14.6294C14.9408 4.55566 15.249 4.61698 15.5367 4.73612C15.8243 4.85526 16.0856 5.02988 16.3058 5.25002C16.5259 5.47015 16.7005 5.73149 16.8197 6.01912C16.9388 6.30674 17.0001 6.61501 17.0001 6.92633V14.6294C17.0001 14.9408 16.9388 15.249 16.8197 15.5367C16.7005 15.8243 16.5259 16.0856 16.3058 16.3058C16.0856 16.5259 15.8243 16.7005 15.5367 16.8197C15.249 16.9388 14.9408 17.0001 14.6294 17.0001H6.92633C6.61501 17.0001 6.30674 16.9388 6.01912 16.8197C5.73149 16.7005 5.47015 16.5259 5.25002 16.3058C5.02988 16.0856 4.85526 15.8243 4.73612 15.5367C4.61698 15.249 4.55566 14.9408 4.55566 14.6294V6.92633Z" stroke="#71717A" stroke-width="1.5" stroke-linecap="round" stroke-linejoin="round"/>
<path d="M1.89956 13.2107C1.62667 13.0556 1.39969 12.8311 1.24169 12.5599C1.08369 12.2887 1.0003 11.9805 1 11.6667V2.77778C1 1.8 1.8 1 2.77778 1H11.6667C12.3333 1 12.696 1.34222 13 1.88889" stroke="#71717A" stroke-width="1.5" stroke-linecap="round" stroke-linejoin="round"/>
</svg>
