<svg width="20" height="24" viewBox="0 0 20 24" fill="none" xmlns="http://www.w3.org/2000/svg">
<path d="M4.29919 2.83882C7.39 6.18314 12.4876 -1.0339 15.5043 1.58537C17.2392 3.09167 16.69 6.41978 14.438 8.58738M11.8179 13.9513C11.8378 13.5893 11.9406 12.928 11.3792 12.4255C11.1647 12.2423 10.9143 12.1037 10.6432 12.0181C9.48516 11.6183 8.06187 12.955 9.06856 14.1793C9.61003 14.8362 10.0266 15.0383 9.98795 15.785C9.96033 16.3101 9.43212 16.859 8.73705 17.0687C8.13259 17.2502 7.46625 17.0092 7.04523 16.5489C6.53028 15.987 6.58111 15.4565 6.57779 15.2252M11.3792 12.4266L12.0135 11.8053M7.09053 16.6192L6.48828 17.2081" stroke="black" stroke-width="1.5" stroke-linecap="round" stroke-linejoin="round"/>
<path d="M16.7722 6.00814C17.7943 6.20048 18.0242 6.83153 18.3292 8.58419C18.6043 10.1618 18.6817 12.056 18.6817 12.8632C18.6523 13.1591 18.529 13.4387 18.3292 13.6628C16.1909 15.8542 11.9464 19.9927 9.80487 22.0479C8.96503 22.7827 7.69644 22.7989 6.80357 22.1246C4.97693 20.5179 3.22212 18.7014 1.50268 17.0612C0.812026 16.1913 0.828601 14.9541 1.58003 14.135C3.84647 11.8367 7.94729 7.90236 10.2612 5.72828C10.4933 5.53378 10.7784 5.41276 11.0823 5.38574C11.6017 5.38574 12.4923 5.45382 13.3609 5.50244" stroke="black" stroke-width="1.5" stroke-linecap="round" stroke-linejoin="round"/>
</svg>
