<svg width="22" height="21" viewBox="0 0 22 21" fill="none" xmlns="http://www.w3.org/2000/svg">
<path d="M11.3784 9.05625C10.8492 8.92688 10.3199 8.66813 9.92301 8.28C9.52608 8.15062 9.39378 7.7625 9.39378 7.50375C9.39378 7.245 9.52608 6.85687 9.7907 6.7275C10.1876 6.46875 10.5845 6.21 10.9815 6.33938C11.7753 6.33938 12.4368 6.7275 12.8338 7.245L14.0245 5.6925C13.6276 5.30438 13.2307 5.04562 12.8338 4.78687C12.4368 4.52812 11.9076 4.39875 11.3784 4.39875V2.5875H9.7907V4.39875C9.12916 4.52813 8.46763 4.91625 7.9384 5.43375C7.40918 6.08063 7.01226 6.85688 7.14456 7.63313C7.14456 8.40938 7.40918 9.18563 7.9384 9.70312C8.59994 10.35 9.52608 10.7381 10.3199 11.1263C10.7168 11.2556 11.2461 11.5144 11.643 11.7731C11.9076 12.0319 12.0399 12.42 12.0399 12.8081C12.0399 13.1962 11.9076 13.5844 11.643 13.9725C11.2461 14.3606 10.7168 14.49 10.3199 14.49C9.7907 14.49 9.12916 14.3606 8.73224 13.9725C8.33532 13.7138 7.9384 13.3256 7.67379 12.9375L6.35072 14.3606C6.74764 14.8781 7.14456 15.2663 7.67379 15.6544C8.33532 16.0425 9.12916 16.4306 9.92301 16.4306V18.1125H11.3784V16.1719C12.1722 16.0425 12.8338 15.6544 13.363 15.1369C14.0245 14.49 14.4214 13.455 14.4214 12.5494C14.4214 11.7731 14.1568 10.8675 13.4953 10.35C12.8338 9.70312 12.1722 9.315 11.3784 9.05625ZM10.5845 0C4.76304 0 0 4.6575 0 10.35C0 16.0425 4.76304 20.7 10.5845 20.7C16.406 20.7 21.1691 16.0425 21.1691 10.35C21.1691 4.6575 16.406 0 10.5845 0ZM10.5845 19.2769C5.55688 19.2769 1.45537 15.2663 1.45537 10.35C1.45537 5.43375 5.55688 1.42312 10.5845 1.42312C15.6122 1.42312 19.7137 5.43375 19.7137 10.35C19.7137 15.2663 15.6122 19.2769 10.5845 19.2769Z" fill="black"/>
</svg>
